<?xml version="1.0" encoding="UTF-8" standalone="no"?>
<!-- Created with Inkscape (http://www.inkscape.org/) -->

<svg
   width="18.827667mm"
   height="15.260083mm"
   viewBox="0 0 18.827667 15.260083"
   version="1.1"
   id="svg1"
   xmlns:inkscape="http://www.inkscape.org/namespaces/inkscape"
   xmlns:sodipodi="http://sodipodi.sourceforge.net/DTD/sodipodi-0.dtd"
   xmlns="http://www.w3.org/2000/svg"
   xmlns:svg="http://www.w3.org/2000/svg">
  <sodipodi:namedview
     id="namedview1"
     pagecolor="#ffffff"
     bordercolor="#000000"
     borderopacity="0.25"
     inkscape:showpageshadow="2"
     inkscape:pageopacity="0.0"
     inkscape:pagecheckerboard="0"
     inkscape:deskcolor="#d1d1d1"
     inkscape:document-units="mm"
     inkscape:lockguides="true">
    <inkscape:page
       x="1.8996891e-15"
       y="0"
       width="18.827665"
       height="15.260083"
       id="page2"
       margin="0"
       bleed="0" />
  </sodipodi:namedview>
  <defs
     id="defs1" />
  <g
     inkscape:label="Lupine"
     inkscape:groupmode="layer"
     id="layer1"
     style="display:none"
     transform="translate(-47.984679,-33.68204)">
    <path
       style="fill:#000000;stroke-width:0.228926"
       id="path3"
       d="m 60.648861,35.432087 c -0.107808,-0.320935 -0.236411,-0.627153 -0.37665,-0.924462 -0.290481,-0.594469 -0.671563,-1.089009 -1.070693,-1.551356 -1.042296,-1.095917 -2.245491,-1.881227 -3.395592,-2.750489 -0.389327,-0.294259 -0.812735,-0.430361 -1.245235,-0.550386 -0.895602,-0.149728 -1.803045,0.01669 -2.590276,0.634341 -0.183272,0.143788 -0.350216,0.321834 -0.525324,0.482751 -1.204851,1.281681 -1.949873,2.959126 -2.618159,4.777568 -0.438795,1.280747 -0.818661,2.606492 -0.990039,4.002111 -0.104097,0.847709 -0.09313,1.107154 -0.11917,1.9553 0.02089,1.423577 0.261067,2.864898 0.831792,4.085333 0.09676,0.20691 0.215536,0.393923 0.323303,0.590884 1.100402,1.101307 2.328159,2.603129 3.752298,2.394127 0.495257,-0.07268 0.886375,-0.380283 1.297663,-0.725091 0.693764,-0.684831 1.20817,-1.610624 1.668174,-2.571588 0.306541,-0.671412 0.569007,-1.375889 0.856053,-2.062052 0.233071,-0.574201 0.26772,-0.694007 0.740645,-0.492857 0.994579,0.499533 2.025976,0.827487 3.062481,1.126632 1.782328,0.490922 3.577542,0.891363 5.372563,1.288855 0.272043,0.05777 0.544087,0.115535 0.81613,0.173302 l -2.200434,-2.205916 v 0 c -0.268206,-0.055 -0.536414,-0.109998 -0.80462,-0.164997 -1.79571,-0.386678 -3.592063,-0.780502 -5.367389,-1.313296 -0.734694,-0.240284 -0.846826,-0.261882 -1.542523,-0.54373 -0.466422,-0.188963 -0.920015,-0.436337 -1.388269,-0.61623 -0.09705,-0.03728 -0.196495,-0.06237 -0.294743,-0.09356 -0.07791,-0.0019 -0.156392,-0.01826 -0.233743,-0.0056 -0.370199,0.06049 -0.54834,0.504571 -0.696903,0.903814 -0.269565,0.68983 -0.517463,1.395312 -0.812999,2.066502 -0.422613,0.921533 -0.902587,1.80966 -1.575502,2.434754 -0.387469,0.292658 -0.743791,0.535365 -1.202773,0.538368 -0.144106,0.0011 -0.544242,-0.178808 -0.429842,-0.06175 1.129205,1.15543 3.687675,1.925697 2.320695,1.060467 -0.116918,-0.180975 -0.977612,0.0093 -1.082236,-0.184656 -0.612645,-1.135629 -0.876741,-2.54826 -0.93351,-3.924181 0.01042,-0.829154 -0.0058,-1.079598 0.08448,-1.909691 0.149078,-1.369941 0.516256,-2.671051 0.945229,-3.924199 0.661929,-1.775333 1.379416,-3.359777 2.587173,-4.57177 0.170516,-0.141812 0.333292,-0.301765 0.511546,-0.425437 0.776937,-0.539033 1.66052,-0.621948 2.508358,-0.4006 0.426169,0.165081 0.446079,0.148418 0.842673,0.395843 0.125637,0.07838 0.488391,0.350673 0.369224,0.255966 -3.901829,-3.100978 -2.338152,-1.890353 -1.528087,-1.116854 0.394042,0.417962 0.767373,0.87504 1.061664,1.42444 0.13986,0.26231 0.269901,0.534215 0.359978,0.834353 z"
       sodipodi:nodetypes="cccscsccscscsccccccccsccssccccccscsccccscsccccc" />
    <path
       style="fill:#000000;stroke-width:0.217651"
       id="path4"
       d="m 65.039124,33.414537 c 0.0359,0.787849 0.0162,1.578051 -0.0011,2.366287 -0.09386,2.343256 -0.406835,4.651396 -0.722743,6.946879 -0.245721,1.705872 -0.504442,3.407569 -0.763022,5.10926 0,0 2.168232,1.719625 2.168232,1.719625 v 0 c 0.242005,-1.712843 0.485929,-3.425087 0.734055,-5.13602 0.32582,-2.287712 0.679734,-4.573214 0.85997,-6.898706 0.04942,-0.765961 0.09975,-1.532094 0.123704,-2.30092 z"
       inkscape:export-filename="Lupine.svg"
       inkscape:export-xdpi="41.216"
       inkscape:export-ydpi="41.216" />
  </g>
  <g
     inkscape:groupmode="layer"
     id="layer2"
     inkscape:label="Calla"
     transform="translate(-47.984679,-33.68204)">
    <path
       style="fill:#000000;stroke-width:0.264583"
       id="path14"
       d="m 51.363131,36.134968 c -2.23e-4,2.65e-4 -0.0079,0.01032 -0.0036,0.01206 0.0019,7.94e-4 0.09891,-0.02402 0.102667,-0.02484 0.130802,-0.03342 0.265308,-0.02706 0.398928,-0.0259 0.04521,0.0013 0.09041,0.0029 0.135628,0.0038 0.22711,0.0043 0.187658,-0.0032 0.443862,0.01924 0.346662,0.03035 0.687962,0.0879 1.030666,0.146646 0.489921,0.09318 0.980964,0.191799 1.459259,0.33502 0.297101,0.08896 0.371695,0.124307 0.658929,0.23563 0.101642,0.04759 0.204864,0.09195 0.304932,0.14278 0.09727,0.04941 0.191183,0.105172 0.286774,0.157761 -0.903531,-0.515676 -1.803019,-1.038501 -2.710593,-1.547024 -0.08397,-0.04705 0.161928,0.104404 0.238951,0.162131 0.204496,0.153273 0.232481,0.195358 0.40958,0.375933 0.285901,0.322239 0.489141,0.705244 0.613302,1.116846 0.02307,0.0765 0.04054,0.154578 0.06081,0.231868 0.06471,0.294846 0.09165,0.597852 0.07183,0.899419 -0.01193,0.181613 -0.02967,0.254246 -0.06105,0.433139 -0.09385,0.454157 -0.279773,0.880165 -0.476366,1.297596 -0.100232,0.212338 -0.205896,0.422317 -0.298381,0.638249 -0.0728,0.169973 -0.117959,0.267237 -0.140383,0.455546 -0.01035,0.08698 -0.0038,0.175138 -0.0058,0.262708 0.01373,0.08766 0.0209,0.176612 0.0412,0.262995 0.08414,0.358254 0.2755,0.68946 0.502914,0.975151 0.06186,0.07771 0.130284,0.149945 0.195427,0.224917 0.345691,0.361707 0.760769,0.651788 1.191884,0.902843 2.995091,1.74416 2.15261,1.29068 3.591925,2.055368 0.888995,0.461378 1.792486,0.894125 2.688595,1.341446 0.794274,0.399486 1.586569,0.80292 2.375308,1.213228 0.315791,0.166161 0.630605,0.334158 0.945184,0.5026 0,0 -2.694765,-2.163522 -2.694765,-2.163522 v 0 c -0.291714,-0.148457 -0.583369,-0.297047 -0.876573,-0.442555 -0.736586,-0.364789 -1.47593,-0.723913 -2.216277,-1.081008 -0.917982,-0.447035 -1.83616,-0.895138 -2.728473,-1.39214 -1.238112,-0.705651 -0.561896,-0.321302 2.019324,1.169305 0.107124,0.06133 -0.211902,-0.126741 -0.316021,-0.193048 -0.256847,-0.163573 -0.507296,-0.339045 -0.727483,-0.550569 -0.06272,-0.06312 -0.128008,-0.123796 -0.188176,-0.189357 -0.263663,-0.287295 -0.485701,-0.617873 -0.574183,-1.001945 -0.0064,-0.06353 -0.0199,-0.126738 -0.01913,-0.190579 0.0019,-0.154279 0.0381,-0.246404 0.09077,-0.391298 0.07906,-0.217501 0.178083,-0.427011 0.271965,-0.638265 0.204849,-0.444579 0.422035,-0.887801 0.534218,-1.367258 0.01638,-0.07951 0.0357,-0.15847 0.04912,-0.238532 0.0694,-0.413965 0.05972,-0.835708 -0.02241,-1.247127 -0.01942,-0.0863 -0.03575,-0.173342 -0.05823,-0.25889 -0.119975,-0.456456 -0.317976,-0.891696 -0.596024,-1.273556 -0.141401,-0.16982 -0.239855,-0.299847 -0.404426,-0.449474 -0.07706,-0.07006 -0.154133,-0.142375 -0.243674,-0.195572 -1.07212,-0.636966 -2.154163,-1.257202 -3.238457,-1.873221 -0.09059,-0.05147 -0.18868,-0.08862 -0.28493,-0.128516 -0.10055,-0.04168 -0.203465,-0.0774 -0.305197,-0.116102 -0.10687,-0.0341 -0.212979,-0.07068 -0.320609,-0.102296 -0.58107,-0.170669 -1.17984,-0.27111 -1.774412,-0.38092 -0.382783,-0.07098 -0.765336,-0.142391 -1.14641,-0.222179 -0.211056,-0.04419 -0.420365,-0.09683 -0.63223,-0.136977 -0.06686,-0.01267 -0.134641,-0.0199 -0.201962,-0.02985 -0.05207,-0.004 -0.104008,-0.01032 -0.156202,-0.01204 -0.140623,-0.0046 -0.279178,0.0227 -0.415213,0.05505 -0.09041,0.02455 -0.183473,0.04898 -0.254765,0.113178 z" />
    <path
       style="fill:#000000;stroke-width:0.264583"
       id="path15"
       d="m 61.427581,35.721107 c -0.0617,0.149294 -0.206949,0.263964 -0.331903,0.355886 -0.271352,0.199617 -0.413057,0.263459 -0.722583,0.435657 -0.179697,0.0879 -0.357044,0.180769 -0.539094,0.263689 -0.673975,0.306988 -1.370938,0.564306 -2.063731,0.824606 -0.71473,0.268542 -0.753954,0.28153 -1.467882,0.543999 -1.259374,0.456446 -2.518558,0.913392 -3.775863,1.375508 0,0 2.539867,1.696553 2.539867,1.696553 v 0 c 1.152337,-0.540599 2.30849,-1.074171 3.484923,-1.560724 0.235249,-0.09405 0.469423,-0.190838 0.705752,-0.282138 1.197192,-0.462508 2.420747,-0.865947 3.678174,-1.129861 0.873461,-0.183756 0.305157,-0.066 1.077825,-0.222422 0.09793,-0.01982 0.456539,-0.09127 0.586057,-0.123351 0.06301,-0.01561 0.12695,-0.03714 0.189172,-0.05751 z" />
    <path
       style="fill:#000000;stroke-width:0.264583"
       id="path16"
       d="m 57.296922,33.68204 c 0.400942,0.307874 0.790795,0.62883 1.171179,0.961731 0.608793,0.543653 1.158091,1.14911 1.701638,1.756691 0.42667,0.483626 0.842812,0.9764 1.260726,1.467572 0.307118,0.361296 0.616924,0.720291 0.924613,1.081098 0.226711,0.270206 0.461749,0.533191 0.697487,0.795499 0.09736,0.109178 0.195374,0.217755 0.29278,0.326887 0,0 3.466999,1.451094 3.466999,1.451094 v 0 c -0.109336,-0.113522 -0.218043,-0.22765 -0.328194,-0.340378 -0.258887,-0.273648 -0.51748,-0.547582 -0.775555,-0.821992 -0.34993,-0.374988 -0.69751,-0.752189 -1.044186,-1.130186 -0.471866,-0.510871 -0.943406,-1.022048 -1.4126,-1.535374 -0.539046,-0.586264 -1.087723,-1.163551 -1.625102,-1.751349 -0.130625,-0.138245 -0.262985,-0.277683 -0.392586,-0.417073 -0.09078,-0.09764 -0.138671,-0.146741 -0.216861,-0.244877 -0.03348,-0.04202 -0.03523,-0.04648 -0.05654,-0.08175 z" />
  </g>
</svg>
