<?xml version="1.0" encoding="UTF-8" standalone="no"?>
<!-- Created with Inkscape (http://www.inkscape.org/) -->

<svg
   width="19.720497mm"
   height="19.952709mm"
   viewBox="0 0 19.720497 19.952709"
   version="1.1"
   id="svg1"
   xmlns:inkscape="http://www.inkscape.org/namespaces/inkscape"
   xmlns:sodipodi="http://sodipodi.sourceforge.net/DTD/sodipodi-0.dtd"
   xmlns="http://www.w3.org/2000/svg"
   xmlns:svg="http://www.w3.org/2000/svg">
  <sodipodi:namedview
     id="namedview1"
     pagecolor="#ffffff"
     bordercolor="#000000"
     borderopacity="0.25"
     inkscape:showpageshadow="2"
     inkscape:pageopacity="0.0"
     inkscape:pagecheckerboard="0"
     inkscape:deskcolor="#d1d1d1"
     inkscape:document-units="mm"
     inkscape:lockguides="true">
    <inkscape:page
       x="0"
       y="0"
       width="19.720497"
       height="19.952709"
       id="page2"
       margin="0"
       bleed="0" />
  </sodipodi:namedview>
  <defs
     id="defs1" />
  <g
     inkscape:label="Layer 1"
     inkscape:groupmode="layer"
     id="layer1"
     transform="translate(-47.717726,-29.603881)">
    <path
       style="fill:#000000;stroke-width:0.228926"
       id="path3"
       d="m 60.648861,35.432087 c -0.107808,-0.320935 -0.236411,-0.627153 -0.37665,-0.924462 -0.290481,-0.594469 -0.671563,-1.089009 -1.070693,-1.551356 -1.042296,-1.095917 -2.245491,-1.881227 -3.395592,-2.750489 -0.389327,-0.294259 -0.812735,-0.430361 -1.245235,-0.550386 -0.895602,-0.149728 -1.803045,0.01669 -2.590276,0.634341 -0.183272,0.143788 -0.350216,0.321834 -0.525324,0.482751 -1.204851,1.281681 -1.949873,2.959126 -2.618159,4.777568 -0.438795,1.280747 -0.818661,2.606492 -0.990039,4.002111 -0.104097,0.847709 -0.09313,1.107154 -0.11917,1.9553 0.02089,1.423577 0.261067,2.864898 0.831792,4.085333 0.09676,0.20691 0.215536,0.393923 0.323303,0.590884 1.100402,1.101307 2.328159,2.603129 3.752298,2.394127 0.495257,-0.07268 0.886375,-0.380283 1.297663,-0.725091 0.693764,-0.684831 1.20817,-1.610624 1.668174,-2.571588 0.306541,-0.671412 0.569007,-1.375889 0.856053,-2.062052 0.233071,-0.574201 0.26772,-0.694007 0.740645,-0.492857 0.994579,0.499533 2.025976,0.827487 3.062481,1.126632 1.782328,0.490922 3.577542,0.891363 5.372563,1.288855 0.272043,0.05777 0.544087,0.115535 0.81613,0.173302 l -2.200434,-2.205916 v 0 c -0.268206,-0.055 -0.536414,-0.109998 -0.80462,-0.164997 -1.79571,-0.386678 -3.592063,-0.780502 -5.367389,-1.313296 -0.734694,-0.240284 -0.846826,-0.261882 -1.542523,-0.54373 -0.466422,-0.188963 -0.920015,-0.436337 -1.388269,-0.61623 -0.09705,-0.03728 -0.196495,-0.06237 -0.294743,-0.09356 -0.07791,-0.0019 -0.156392,-0.01826 -0.233743,-0.0056 -0.370199,0.06049 -0.54834,0.504571 -0.696903,0.903814 -0.269565,0.68983 -0.517463,1.395312 -0.812999,2.066502 -0.422613,0.921533 -0.902587,1.80966 -1.575502,2.434754 -0.387469,0.292658 -0.743791,0.535365 -1.202773,0.538368 -0.144106,0.0011 -0.544242,-0.178808 -0.429842,-0.06175 1.129205,1.15543 3.687675,1.925697 2.320695,1.060467 -0.116918,-0.180975 -0.977612,0.0093 -1.082236,-0.184656 -0.612645,-1.135629 -0.876741,-2.54826 -0.93351,-3.924181 0.01042,-0.829154 -0.0058,-1.079598 0.08448,-1.909691 0.149078,-1.369941 0.516256,-2.671051 0.945229,-3.924199 0.661929,-1.775333 1.379416,-3.359777 2.587173,-4.57177 0.170516,-0.141812 0.333292,-0.301765 0.511546,-0.425437 0.776937,-0.539033 1.66052,-0.621948 2.508358,-0.4006 0.426169,0.165081 0.446079,0.148418 0.842673,0.395843 0.125637,0.07838 0.488391,0.350673 0.369224,0.255966 -3.901829,-3.100978 -2.338152,-1.890353 -1.528087,-1.116854 0.394042,0.417962 0.767373,0.87504 1.061664,1.42444 0.13986,0.26231 0.269901,0.534215 0.359978,0.834353 z"
       sodipodi:nodetypes="cccscsccscscsccccccccsccssccccccscsccccscsccccc" />
    <path
       style="fill:#000000;stroke-width:0.217651"
       id="path4"
       d="m 65.039124,33.414537 c 0.0359,0.787849 0.0162,1.578051 -0.0011,2.366287 -0.09386,2.343256 -0.406835,4.651396 -0.722743,6.946879 -0.245721,1.705872 -0.504442,3.407569 -0.763022,5.10926 0,0 2.168232,1.719625 2.168232,1.719625 v 0 c 0.242005,-1.712843 0.485929,-3.425087 0.734055,-5.13602 0.32582,-2.287712 0.679734,-4.573214 0.85997,-6.898706 0.04942,-0.765961 0.09975,-1.532094 0.123704,-2.30092 z"
       inkscape:export-filename="path4.png"
       inkscape:export-xdpi="41.216"
       inkscape:export-ydpi="41.216" />
  </g>
</svg>
