<?xml version="1.0" encoding="UTF-8" standalone="no"?>
<!-- Created with Inkscape (http://www.inkscape.org/) -->

<svg
   width="21.325512mm"
   height="14.17599mm"
   viewBox="0 0 21.325512 14.17599"
   version="1.1"
   id="svg1"
   inkscape:version="1.4 (e7c3feb, 2024-10-09)"
   sodipodi:docname="rgns.svg"
   xmlns:inkscape="http://www.inkscape.org/namespaces/inkscape"
   xmlns:sodipodi="http://sodipodi.sourceforge.net/DTD/sodipodi-0.dtd"
   xmlns="http://www.w3.org/2000/svg"
   xmlns:svg="http://www.w3.org/2000/svg">
  <sodipodi:namedview
     id="namedview1"
     pagecolor="#ffffff"
     bordercolor="#000000"
     borderopacity="0.25"
     inkscape:showpageshadow="2"
     inkscape:pageopacity="0.0"
     inkscape:pagecheckerboard="0"
     inkscape:deskcolor="#d1d1d1"
     inkscape:document-units="mm"
     inkscape:lockguides="true"
     inkscape:zoom="8.1235538"
     inkscape:cx="236.04201"
     inkscape:cy="158.3051"
     inkscape:window-width="1854"
     inkscape:window-height="1011"
     inkscape:window-x="66"
     inkscape:window-y="32"
     inkscape:window-maximized="1"
     inkscape:current-layer="svg1">
    <inkscape:page
       x="0"
       y="0"
       width="21.325512"
       height="14.17599"
       id="page2"
       margin="0"
       bleed="0" />
  </sodipodi:namedview>
  <defs
     id="defs1" />
  <g
     inkscape:label="Lupine"
     inkscape:groupmode="layer"
     id="layer1"
     style="display:none"
     transform="translate(-45.145479,-32.957378)">
    <path
       style="fill:#000000;stroke-width:0.228926"
       id="path3"
       d="m 60.648861,35.432087 c -0.107808,-0.320935 -0.236411,-0.627153 -0.37665,-0.924462 -0.290481,-0.594469 -0.671563,-1.089009 -1.070693,-1.551356 -1.042296,-1.095917 -2.245491,-1.881227 -3.395592,-2.750489 -0.389327,-0.294259 -0.812735,-0.430361 -1.245235,-0.550386 -0.895602,-0.149728 -1.803045,0.01669 -2.590276,0.634341 -0.183272,0.143788 -0.350216,0.321834 -0.525324,0.482751 -1.204851,1.281681 -1.949873,2.959126 -2.618159,4.777568 -0.438795,1.280747 -0.818661,2.606492 -0.990039,4.002111 -0.104097,0.847709 -0.09313,1.107154 -0.11917,1.9553 0.02089,1.423577 0.261067,2.864898 0.831792,4.085333 0.09676,0.20691 0.215536,0.393923 0.323303,0.590884 1.100402,1.101307 2.328159,2.603129 3.752298,2.394127 0.495257,-0.07268 0.886375,-0.380283 1.297663,-0.725091 0.693764,-0.684831 1.20817,-1.610624 1.668174,-2.571588 0.306541,-0.671412 0.569007,-1.375889 0.856053,-2.062052 0.233071,-0.574201 0.26772,-0.694007 0.740645,-0.492857 0.994579,0.499533 2.025976,0.827487 3.062481,1.126632 1.782328,0.490922 3.577542,0.891363 5.372563,1.288855 0.272043,0.05777 0.544087,0.115535 0.81613,0.173302 l -2.200434,-2.205916 v 0 c -0.268206,-0.055 -0.536414,-0.109998 -0.80462,-0.164997 -1.79571,-0.386678 -3.592063,-0.780502 -5.367389,-1.313296 -0.734694,-0.240284 -0.846826,-0.261882 -1.542523,-0.54373 -0.466422,-0.188963 -0.920015,-0.436337 -1.388269,-0.61623 -0.09705,-0.03728 -0.196495,-0.06237 -0.294743,-0.09356 -0.07791,-0.0019 -0.156392,-0.01826 -0.233743,-0.0056 -0.370199,0.06049 -0.54834,0.504571 -0.696903,0.903814 -0.269565,0.68983 -0.517463,1.395312 -0.812999,2.066502 -0.422613,0.921533 -0.902587,1.80966 -1.575502,2.434754 -0.387469,0.292658 -0.743791,0.535365 -1.202773,0.538368 -0.144106,0.0011 -0.544242,-0.178808 -0.429842,-0.06175 1.129205,1.15543 3.687675,1.925697 2.320695,1.060467 -0.116918,-0.180975 -0.977612,0.0093 -1.082236,-0.184656 -0.612645,-1.135629 -0.876741,-2.54826 -0.93351,-3.924181 0.01042,-0.829154 -0.0058,-1.079598 0.08448,-1.909691 0.149078,-1.369941 0.516256,-2.671051 0.945229,-3.924199 0.661929,-1.775333 1.379416,-3.359777 2.587173,-4.57177 0.170516,-0.141812 0.333292,-0.301765 0.511546,-0.425437 0.776937,-0.539033 1.66052,-0.621948 2.508358,-0.4006 0.426169,0.165081 0.446079,0.148418 0.842673,0.395843 0.125637,0.07838 0.488391,0.350673 0.369224,0.255966 -3.901829,-3.100978 -2.338152,-1.890353 -1.528087,-1.116854 0.394042,0.417962 0.767373,0.87504 1.061664,1.42444 0.13986,0.26231 0.269901,0.534215 0.359978,0.834353 z"
       sodipodi:nodetypes="cccscsccscscsccccccccsccssccccccscsccccscsccccc" />
    <path
       style="fill:#000000;stroke-width:0.217651"
       id="path4"
       d="m 65.039124,33.414537 c 0.0359,0.787849 0.0162,1.578051 -0.0011,2.366287 -0.09386,2.343256 -0.406835,4.651396 -0.722743,6.946879 -0.245721,1.705872 -0.504442,3.407569 -0.763022,5.10926 0,0 2.168232,1.719625 2.168232,1.719625 v 0 c 0.242005,-1.712843 0.485929,-3.425087 0.734055,-5.13602 0.32582,-2.287712 0.679734,-4.573214 0.85997,-6.898706 0.04942,-0.765961 0.09975,-1.532094 0.123704,-2.30092 z"
       inkscape:export-filename="Lupine.svg"
       inkscape:export-xdpi="41.216"
       inkscape:export-ydpi="41.216" />
  </g>
  <g
     inkscape:groupmode="layer"
     id="layer2"
     inkscape:label="Calla"
     inkscape:export-filename="Calla.png"
     inkscape:export-xdpi="43.170513"
     inkscape:export-ydpi="43.170513"
     style="display:none"
     transform="translate(-45.145479,-32.957378)">
    <path
       style="fill:#000000;stroke-width:0.264583"
       id="path14"
       d="m 51.363131,36.134968 c -2.23e-4,2.65e-4 -0.0079,0.01032 -0.0036,0.01206 0.0019,7.94e-4 0.09891,-0.02402 0.102667,-0.02484 0.130802,-0.03342 0.265308,-0.02706 0.398928,-0.0259 0.04521,0.0013 0.09041,0.0029 0.135628,0.0038 0.22711,0.0043 0.187658,-0.0032 0.443862,0.01924 0.346662,0.03035 0.687962,0.0879 1.030666,0.146646 0.489921,0.09318 0.980964,0.191799 1.459259,0.33502 0.297101,0.08896 0.371695,0.124307 0.658929,0.23563 0.101642,0.04759 0.204864,0.09195 0.304932,0.14278 0.09727,0.04941 0.191183,0.105172 0.286774,0.157761 -0.903531,-0.515676 -1.803019,-1.038501 -2.710593,-1.547024 -0.08397,-0.04705 0.161928,0.104404 0.238951,0.162131 0.204496,0.153273 0.232481,0.195358 0.40958,0.375933 0.285901,0.322239 0.489141,0.705244 0.613302,1.116846 0.02307,0.0765 0.04054,0.154578 0.06081,0.231868 0.06471,0.294846 0.09165,0.597852 0.07183,0.899419 -0.01193,0.181613 -0.02967,0.254246 -0.06105,0.433139 -0.09385,0.454157 -0.279773,0.880165 -0.476366,1.297596 -0.100232,0.212338 -0.205896,0.422317 -0.298381,0.638249 -0.0728,0.169973 -0.117959,0.267237 -0.140383,0.455546 -0.01035,0.08698 -0.0038,0.175138 -0.0058,0.262708 0.01373,0.08766 0.0209,0.176612 0.0412,0.262995 0.08414,0.358254 0.2755,0.68946 0.502914,0.975151 0.06186,0.07771 0.130284,0.149945 0.195427,0.224917 0.345691,0.361707 0.760769,0.651788 1.191884,0.902843 2.995091,1.74416 2.15261,1.29068 3.591925,2.055368 0.888995,0.461378 1.792486,0.894125 2.688595,1.341446 0.794274,0.399486 1.586569,0.80292 2.375308,1.213228 0.315791,0.166161 0.630605,0.334158 0.945184,0.5026 0,0 -2.694765,-2.163522 -2.694765,-2.163522 v 0 c -0.291714,-0.148457 -0.583369,-0.297047 -0.876573,-0.442555 -0.736586,-0.364789 -1.47593,-0.723913 -2.216277,-1.081008 -0.917982,-0.447035 -1.83616,-0.895138 -2.728473,-1.39214 -1.238112,-0.705651 -0.561896,-0.321302 2.019324,1.169305 0.107124,0.06133 -0.211902,-0.126741 -0.316021,-0.193048 -0.256847,-0.163573 -0.507296,-0.339045 -0.727483,-0.550569 -0.06272,-0.06312 -0.128008,-0.123796 -0.188176,-0.189357 -0.263663,-0.287295 -0.485701,-0.617873 -0.574183,-1.001945 -0.0064,-0.06353 -0.0199,-0.126738 -0.01913,-0.190579 0.0019,-0.154279 0.0381,-0.246404 0.09077,-0.391298 0.07906,-0.217501 0.178083,-0.427011 0.271965,-0.638265 0.204849,-0.444579 0.422035,-0.887801 0.534218,-1.367258 0.01638,-0.07951 0.0357,-0.15847 0.04912,-0.238532 0.0694,-0.413965 0.05972,-0.835708 -0.02241,-1.247127 -0.01942,-0.0863 -0.03575,-0.173342 -0.05823,-0.25889 -0.119975,-0.456456 -0.317976,-0.891696 -0.596024,-1.273556 -0.141401,-0.16982 -0.239855,-0.299847 -0.404426,-0.449474 -0.07706,-0.07006 -0.154133,-0.142375 -0.243674,-0.195572 -1.07212,-0.636966 -2.154163,-1.257202 -3.238457,-1.873221 -0.09059,-0.05147 -0.18868,-0.08862 -0.28493,-0.128516 -0.10055,-0.04168 -0.203465,-0.0774 -0.305197,-0.116102 -0.10687,-0.0341 -0.212979,-0.07068 -0.320609,-0.102296 -0.58107,-0.170669 -1.17984,-0.27111 -1.774412,-0.38092 -0.382783,-0.07098 -0.765336,-0.142391 -1.14641,-0.222179 -0.211056,-0.04419 -0.420365,-0.09683 -0.63223,-0.136977 -0.06686,-0.01267 -0.134641,-0.0199 -0.201962,-0.02985 -0.05207,-0.004 -0.104008,-0.01032 -0.156202,-0.01204 -0.140623,-0.0046 -0.279178,0.0227 -0.415213,0.05505 -0.09041,0.02455 -0.183473,0.04898 -0.254765,0.113178 z" />
    <path
       style="fill:#000000;stroke-width:0.264583"
       id="path15"
       d="m 61.427581,35.721107 c -0.0617,0.149294 -0.206949,0.263964 -0.331903,0.355886 -0.271352,0.199617 -0.413057,0.263459 -0.722583,0.435657 -0.179697,0.0879 -0.357044,0.180769 -0.539094,0.263689 -0.673975,0.306988 -1.370938,0.564306 -2.063731,0.824606 -0.71473,0.268542 -0.753954,0.28153 -1.467882,0.543999 -1.259374,0.456446 -2.518558,0.913392 -3.775863,1.375508 0,0 2.539867,1.696553 2.539867,1.696553 v 0 c 1.152337,-0.540599 2.30849,-1.074171 3.484923,-1.560724 0.235249,-0.09405 0.469423,-0.190838 0.705752,-0.282138 1.197192,-0.462508 2.420747,-0.865947 3.678174,-1.129861 0.873461,-0.183756 0.305157,-0.066 1.077825,-0.222422 0.09793,-0.01982 0.456539,-0.09127 0.586057,-0.123351 0.06301,-0.01561 0.12695,-0.03714 0.189172,-0.05751 z" />
    <path
       style="fill:#000000;stroke-width:0.264583"
       id="path16"
       d="m 57.296922,33.68204 c 0.400942,0.307874 0.790795,0.62883 1.171179,0.961731 0.608793,0.543653 1.158091,1.14911 1.701638,1.756691 0.42667,0.483626 0.842812,0.9764 1.260726,1.467572 0.307118,0.361296 0.616924,0.720291 0.924613,1.081098 0.226711,0.270206 0.461749,0.533191 0.697487,0.795499 0.09736,0.109178 0.195374,0.217755 0.29278,0.326887 0,0 3.466999,1.451094 3.466999,1.451094 v 0 c -0.109336,-0.113522 -0.218043,-0.22765 -0.328194,-0.340378 -0.258887,-0.273648 -0.51748,-0.547582 -0.775555,-0.821992 -0.34993,-0.374988 -0.69751,-0.752189 -1.044186,-1.130186 -0.471866,-0.510871 -0.943406,-1.022048 -1.4126,-1.535374 -0.539046,-0.586264 -1.087723,-1.163551 -1.625102,-1.751349 -0.130625,-0.138245 -0.262985,-0.277683 -0.392586,-0.417073 -0.09078,-0.09764 -0.138671,-0.146741 -0.216861,-0.244877 -0.03348,-0.04202 -0.03523,-0.04648 -0.05654,-0.08175 z" />
  </g>
  <g
     inkscape:groupmode="layer"
     id="layer3"
     inkscape:label="Dayglare"
     inkscape:export-filename="Git/karvaea.com/resources/svg/Dayglare.png"
     inkscape:export-xdpi="43.170513"
     inkscape:export-ydpi="43.170513"
     style="display:none"
     transform="translate(-45.145479,-32.957378)">
    <path
       style="fill:#000000;stroke-width:0.264583"
       id="path19"
       d="m 47.815322,30.065681 c 0.0066,-0.0024 0.01318,-0.0098 0.01979,-0.0074 0.0083,0.003 0.01074,0.01405 0.01659,0.02064 0.0074,0.0083 0.01609,0.01532 0.02302,0.02395 0.03607,0.04502 0.02937,0.04556 0.0596,0.10206 0.01852,0.03459 0.03806,0.06863 0.05709,0.102947 0.202729,0.43058 0.284234,0.902989 0.384374,1.364515 0.139988,0.792591 0.162245,1.599088 0.181475,2.401779 0.01236,0.800285 0.02371,1.600602 0.03937,2.400831 0.01566,0.476166 0.02923,0.953273 0.06873,1.428253 0.0085,0.102187 0.0601,0.586433 0.07113,0.691097 0.04606,0.440007 0.107299,0.878768 0.205573,1.310423 0.02437,0.107085 0.04767,0.214603 0.07899,0.319868 0.0335,0.112585 0.07684,0.222004 0.115266,0.333005 0.165328,0.433932 0.364027,0.856368 0.607407,1.252362 0.160885,0.261774 0.227391,0.341601 0.409405,0.589479 0.08747,0.09962 0.170741,0.203091 0.262406,0.298865 0.232042,0.242448 0.419481,0.400344 0.683469,0.611386 0.300948,0.240586 0.484796,0.372081 0.810565,0.585708 0.147018,0.09641 0.297619,0.187254 0.446428,0.280879 0.153252,0.0896 0.305589,0.180779 0.459762,0.268785 0.942474,0.537999 1.88264,1.080133 2.830149,1.609212 0.152416,0.08511 0.312024,0.156668 0.469014,0.23301 0.332722,0.161801 0.60058,0.286904 0.939737,0.433753 0.153058,0.06628 0.307718,0.128799 0.461576,0.193199 0.150243,0.05969 0.299984,0.12065 0.450728,0.179062 0.145143,0.05624 0.289909,0.113649 0.436891,0.164886 0.140546,0.04899 0.283088,0.0921 0.425399,0.135702 0.255509,0.07828 0.55807,0.164512 0.818134,0.228793 0.129429,0.03199 0.259959,0.05936 0.389941,0.08905 0.48179,0.09785 0.970637,0.160872 1.461283,0.191148 0.289544,0.01786 0.388249,0.01699 0.676238,0.02289 0.402833,-0.0013 0.807815,0.0024 1.209079,-0.0401 0.244076,-0.02588 0.296683,-0.04227 0.535472,-0.09052 0.337992,-0.08305 0.670677,-0.206024 0.965319,-0.394415 0.202324,-0.12936 0.254982,-0.189606 0.435293,-0.350501 0.06802,-0.07869 0.138541,-0.155282 0.20407,-0.236054 0.128852,-0.158816 0.290341,-0.384111 0.406236,-0.551076 0.206005,-0.296781 0.399955,-0.600343 0.589444,-0.907807 0.06105,-0.103994 0.124442,-0.206653 0.183163,-0.311983 0.103794,-0.186169 0.239909,-0.457603 0.333772,-0.648968 0.154168,-0.314312 0.299781,-0.631928 0.441135,-0.952148 0.165719,-0.383087 0.321566,-0.771586 0.447079,-1.169961 0.07573,-0.240345 0.09059,-0.312944 0.152339,-0.555834 0.131263,-0.523661 0.186164,-1.060154 0.216795,-1.597713 0.0094,-0.348464 0.01185,-0.6976 -0.0035,-1.045972 -0.0074,-0.167791 -0.02445,-0.37348 -0.0372,-0.540681 -0.0078,-0.09174 -0.01373,-0.183661 -0.02349,-0.275209 -0.0205,-0.192246 -0.04827,-0.383667 -0.06925,-0.57586 -0.02939,-0.26918 -0.05359,-0.538655 -0.07645,-0.808451 -0.02463,-0.320725 -0.01291,-0.162655 -0.0352,-0.474202 0,0 -3.079255,-1.518512 -3.079255,-1.518512 v 0 c 0.06198,0.328641 0.03154,0.162025 0.0912,0.499877 0.06108,0.366689 0.119785,0.733764 0.150939,1.104487 0.0076,0.09076 0.01143,0.18179 0.01741,0.272667 0.0059,0.08904 0.01212,0.178043 0.01818,0.267065 0.02453,0.514469 0.04656,1.029729 0.03407,1.544862 -0.0113,0.526016 -0.04259,1.05256 -0.138189,1.570929 -0.01741,0.09138 -0.03354,0.183005 -0.05218,0.274138 -0.101864,0.498004 -0.239413,0.987988 -0.405815,1.468228 -0.08989,0.247137 -0.138938,0.391332 -0.241327,0.634717 -0.182641,0.434152 -0.403333,0.850654 -0.648144,1.252794 -0.134882,0.211828 -0.238731,0.382773 -0.387525,0.585219 -0.256746,0.349329 -0.553177,0.669512 -0.914791,0.912333 -0.07532,0.04904 -0.148884,0.100902 -0.225976,0.147117 -0.349506,0.209528 -0.734075,0.35203 -1.130808,0.441282 -0.07982,0.0155 -0.159284,0.03298 -0.239469,0.04649 -0.443751,0.07475 -0.89472,0.101727 -1.343871,0.11557 -0.272987,0.0011 -0.347512,0.0048 -0.622911,-0.0092 -0.455624,-0.02326 -0.909111,-0.08121 -1.356644,-0.169498 -0.32054,-0.06802 -0.401195,-0.08127 -0.721285,-0.165089 -0.53783,-0.14083 -1.063191,-0.324038 -1.579928,-0.528516 -0.142666,-0.0587 -0.286197,-0.115353 -0.428001,-0.176112 -0.297603,-0.127513 -0.599389,-0.267113 -0.889547,-0.410509 -0.154176,-0.07619 -0.606497,-0.323847 -0.459515,-0.234569 0.683749,0.415319 2.859381,1.659041 1.47434,0.866198 -0.136123,-0.08455 -0.274074,-0.166232 -0.408371,-0.253656 -0.553892,-0.360563 -1.079357,-0.773705 -1.50123,-1.285904 -0.07043,-0.0901 -0.143555,-0.178154 -0.21128,-0.270303 -0.331182,-0.450631 -0.60392,-0.945489 -0.811366,-1.464419 -0.03485,-0.100377 -0.0727,-0.199758 -0.10454,-0.301127 -0.164743,-0.524489 -0.255209,-1.069372 -0.344255,-1.610532 -0.09842,-0.710285 -0.169865,-1.423795 -0.227938,-2.138482 -0.02008,-0.24757 -0.04437,-0.535292 -0.06063,-0.782791 -0.03601,-0.548235 -0.04732,-1.097656 -0.05866,-1.646843 -0.0075,-0.765876 -0.01246,-1.533504 0.05857,-2.296965 0.01072,-0.09531 0.02439,-0.19033 0.03213,-0.285927 0.0066,-0.08192 0.0071,-0.164221 0.01093,-0.246324 0.01,-0.216914 0.0164,-0.435055 0.05066,-0.649849 0.0069,-0.02593 0.01553,-0.05146 0.02066,-0.07779 0.0033,-0.01696 0.0024,-0.03451 0.0047,-0.05164 0.0054,-0.03993 0.01265,-0.0814 0.03048,-0.117751 z" />
    <path
       style="fill:#000000;stroke-width:0.264583"
       id="path20"
       d="m 59.244028,31.294009 c 0.0245,0.05582 0.01154,0.123806 0.0069,0.181631 -0.01548,0.192635 -0.0081,0.115522 -0.04237,0.337381 -0.01828,0.08252 -0.03637,0.165084 -0.05487,0.247557 -0.02424,0.108111 -0.04312,0.217596 -0.07333,0.324191 -0.03462,0.122111 -0.07864,0.241385 -0.12091,0.361061 -0.04839,0.13702 -0.09601,0.27445 -0.151058,0.408935 -0.144008,0.351862 -0.245878,0.536546 -0.41832,0.878451 -0.08432,0.148595 -0.166404,0.298482 -0.252965,0.445781 -0.08891,0.151288 -0.447527,0.732724 -0.539306,0.881171 -0.101706,0.164507 -0.446093,0.719897 -0.550688,0.882576 -0.09205,0.143168 -0.18733,0.284236 -0.280995,0.426354 -0.41869,0.619977 -0.852191,1.229794 -1.290894,1.835714 0,0 2.640295,1.534104 2.640295,1.534104 v 0 c 0.340934,-0.662357 0.688756,-1.321429 1.061797,-1.966407 0.08653,-0.146137 0.17123,-0.293378 0.259596,-0.438414 0.0833,-0.136721 0.468871,-0.746078 0.554223,-0.881335 0.184488,-0.29236 0.366286,-0.586417 0.551481,-0.878332 0.092,-0.145013 0.185944,-0.288782 0.278916,-0.433173 0.180007,-0.260025 0.375783,-0.548484 0.566211,-0.801905 0.08762,-0.116607 0.179665,-0.229833 0.270349,-0.344077 0.07866,-0.09911 0.154265,-0.200827 0.237688,-0.295961 0.01259,-0.01437 0.361728,-0.372356 0.403548,-0.415274 0.0479,-0.04324 0.09451,-0.08794 0.1437,-0.129704 0.08837,-0.07503 0.185492,-0.138155 0.277831,-0.207631 z" />
  </g>
  <g
     inkscape:groupmode="layer"
     id="layer4"
     inkscape:label="Antiri"
     inkscape:export-filename="Git/karvaea.com/resources/svg/Antiri.svg"
     inkscape:export-xdpi="43.170513"
     inkscape:export-ydpi="43.170513"
     style="display:none"
     transform="translate(-45.145479,-32.957378)">
    <path
       style="fill:#000000;stroke-width:0.264583"
       id="path24"
       d="m 51.097161,37.524552 c 0.01423,-0.05185 0.06007,-0.09202 0.09737,-0.128236 0.128048,-0.124579 0.288277,-0.205017 0.448673,-0.279431 0.220167,-0.08987 0.44705,-0.167677 0.678645,-0.222803 0.124053,-0.02953 0.375801,-0.07559 0.496364,-0.09842 0.71919,-0.108165 1.448467,-0.07163 2.171345,-0.03033 0.711518,0.04933 1.419344,0.138957 2.124218,0.246052 0.561568,0.08493 1.117529,0.200181 1.670357,0.329388 0.454544,0.106452 0.90252,0.23767 1.350947,0.3668 0.403518,0.119644 0.80659,0.240768 1.217279,0.333496 0.406783,0.08811 0.815427,0.167511 1.226605,0.232146 0.394936,0.06886 0.794867,0.09552 1.19452,0.118488 0.402537,0.01646 0.805352,0.02513 1.208082,0.03556 0.342159,0.01188 0.684652,0.02037 1.026115,0.04611 0.222533,0.02037 0.213413,0.145402 0.432962,0.186712 0.0873,0.02254 0.476681,-0.04805 0.533572,0.0327 0.01008,0.01431 -0.08748,-0.114419 -0.08081,-0.09822 -1.10251,-0.660435 -2.121644,-1.145869 -3.206777,-1.83449 -0.01037,-0.0066 0.137787,-0.204234 0.100365,-0.113424 -0.0117,0.02838 -0.0222,0.05832 -0.04144,0.08224 -0.03522,0.04378 -0.07997,0.07895 -0.119951,0.118425 -0.137893,0.09396 -0.262224,0.207068 -0.400963,0.299823 -0.08436,0.0564 -0.544981,0.32611 -0.615934,0.367224 -0.271712,0.157445 -0.511988,0.291832 -0.786744,0.446801 -0.628518,0.351177 -0.31935,0.18383 -0.993624,0.537038 -0.567653,0.297355 -0.660175,0.358357 -1.266458,0.618842 -0.588832,0.25299 -0.887179,0.351751 -1.491593,0.571773 -1.374942,0.472474 -2.76977,0.883885 -4.156761,1.319001 -0.982464,0.307776 -1.960745,0.62857 -2.935515,0.959847 -0.512066,0.177385 -0.260098,0.08979 -0.755917,0.262745 l 2.594367,1.732497 v 0 c 0.431622,-0.214088 0.212325,-0.10576 0.657928,-0.324919 0.849104,-0.410639 1.702965,-0.811467 2.561403,-1.202219 1.239684,-0.556813 2.483519,-1.107025 3.75613,-1.585201 0.670973,-0.241205 0.867397,-0.319852 1.551676,-0.533188 0.872119,-0.2719 0.684554,-0.19557 1.546566,-0.436677 0.286684,-0.08019 0.957569,-0.281643 1.255855,-0.37066 0.3286,-0.105079 0.656744,-0.211574 0.985388,-0.316508 0.156509,-0.04997 0.62929,-0.200064 0.798994,-0.246279 0.117676,-0.03205 0.237429,-0.05597 0.355574,-0.08623 0.09331,-0.02389 0.185819,-0.05085 0.27873,-0.07627 0.04406,-0.01074 0.400677,-0.0952 0.455589,-0.117549 0.0434,-0.01767 0.08406,-0.04403 0.118105,-0.07622 0.04135,-0.0391 0.07685,-0.08518 0.104941,-0.134673 0.02508,-0.0442 0.09512,-0.115078 0.0527,-0.143073 -1.088022,-0.718048 -2.228985,-1.352468 -3.343476,-2.028703 -0.109588,0.02717 -0.222422,0.01603 -0.334372,0.01466 -0.192863,-0.0035 -0.385768,-0.0016 -0.578343,0.01087 -0.307631,0.0163 -0.615579,0.02671 -0.923641,0.02965 -0.393359,1.8e-4 -0.787094,-0.0065 -1.179299,-0.03902 -0.393414,-0.03191 -0.785079,-0.08019 -1.174567,-0.14456 -0.401966,-0.06851 -0.803685,-0.14102 -1.198007,-0.246216 -0.397415,-0.107434 -0.794287,-0.2168 -1.191228,-0.325959 -0.430596,-0.115686 -0.864153,-0.221485 -1.303002,-0.30126 -0.519546,-0.09358 -1.041751,-0.171844 -1.567899,-0.217895 -0.665099,-0.06071 -1.33155,-0.103513 -1.999208,-0.123584 -0.781761,-0.02709 -1.563989,-0.04431 -2.346253,-0.04325 -0.117248,0.0019 -0.234598,-3.5e-5 -0.351743,0.0052 -0.09812,0.0044 -0.195916,0.0145 -0.293719,0.02357 -0.298918,0.02768 -0.595984,0.0705 -0.886859,0.14632 -0.236525,0.06117 -0.473131,0.126669 -0.692534,0.236437 -0.0722,0.03853 -0.140078,0.08561 -0.216371,0.115363 z"
       sodipodi:nodetypes="cccscccccccccccsccsscsscsscccccscccsscssscsssscccccccccccccccccc" />
    <path
       style="fill:#000000;stroke-width:0.264583"
       id="path26"
       d="m 59.436012,33.467688 c 0.0052,0.007 0.0092,0.0149 0.01545,0.02096 0.03305,0.0322 0.07052,0.05954 0.104892,0.09033 0.163573,0.146492 0.328874,0.29097 0.492836,0.437052 0.509326,0.451728 1.030611,0.890066 1.537722,1.344295 0.186272,0.166849 0.757383,0.696137 0.934243,0.859618 0.874504,0.804526 1.690212,1.669431 2.501218,2.536981 0.562718,0.603538 1.118624,1.213366 1.66888,1.828273 0.07316,0.08236 0.146315,0.164727 0.219472,0.247092 0,0 2.913515,1.216224 2.913515,1.216224 v 0 c -0.08959,-0.0896 -0.179176,-0.179192 -0.268761,-0.268788 -0.671473,-0.667496 -1.348428,-1.329417 -2.031635,-1.984909 -0.890767,-0.858494 -1.786914,-1.712143 -2.645963,-2.60268 -0.02299,-0.02363 -0.730967,-0.751041 -0.769302,-0.791943 -0.104006,-0.110961 -0.204849,-0.224867 -0.305314,-0.339048 -0.147852,-0.168039 -0.296211,-0.341191 -0.429003,-0.52197 -0.04255,-0.05793 -0.08039,-0.119173 -0.120581,-0.17876 -0.08604,-0.142674 -0.06406,-0.09596 -0.121015,-0.220319 -0.01609,-0.03513 -0.024,-0.04899 -0.03147,-0.08314 -0.0013,-0.0057 -2.65e-4,-0.01183 -0.0019,-0.01744 -5.3e-4,-0.0016 -0.0027,-0.0016 -0.004,-0.0026 z" />
  </g>
  <g
     inkscape:groupmode="layer"
     id="layer5"
     inkscape:label="Tiptop"
     transform="translate(-45.145479,-32.957378)">
    <path
       style="fill:#000000;stroke-width:0.264583"
       id="path27"
       d="m 48.504284,47.133369 c 0.01857,-0.04959 0.06731,-0.0891 0.10541,-0.124026 0.09131,-0.07715 0.188635,-0.147018 0.284713,-0.218093 0.165102,-0.125484 0.332171,-0.247661 0.506878,-0.359447 0.274412,-0.160436 0.545735,-0.325896 0.816343,-0.492673 0.333422,-0.231402 0.645588,-0.492038 0.955931,-0.753139 0.378185,-0.299635 0.72399,-0.636961 1.056736,-0.985586 0.05703,-0.06298 0.114347,-0.125696 0.171079,-0.188939 0.137626,-0.153427 0.214093,-0.237167 0.341675,-0.400608 0.180274,-0.230939 0.348848,-0.471829 0.517784,-0.711052 0.301056,-0.420188 0.588719,-0.851345 0.839423,-1.303827 0.05038,-0.09093 0.09699,-0.183896 0.145484,-0.275844 0.240548,-0.455126 0.436715,-0.933858 0.58925,-1.425536 0.03139,-0.101195 0.05827,-0.203734 0.0874,-0.305601 0.05842,-0.218041 0.111956,-0.407609 0.159988,-0.628494 0.02445,-0.112453 0.04289,-0.226139 0.06602,-0.338873 0.06996,-0.340895 0.144425,-0.681048 0.22117,-1.020466 0.135888,-0.585738 0.288992,-1.167339 0.460841,-1.743525 0.06161,-0.204981 0.126365,-0.409165 0.216292,-0.603792 0.03608,-0.07809 -0.06611,0.02988 0.02855,-0.0018 0.02357,-0.0079 0.03748,0.0086 0.06199,0.01286 0.0093,0.03535 0.292745,0.344866 0.261173,0.123308 0.346366,1.032475 2.980498,1.47194 -2.822796,-1.722181 -0.134464,-0.07401 0.251542,0.176273 0.371787,0.271664 0.327583,0.259865 0.556983,0.485193 0.86677,0.772755 0.895083,0.881314 1.666748,1.875187 2.422951,2.875002 0.559305,0.751422 1.106403,1.51188 1.64769,2.276356 0.388294,0.55019 0.771186,1.104159 1.158015,1.655376 0.303702,0.429784 0.604345,0.861753 0.915024,1.286545 0.248235,0.33833 0.499812,0.674174 0.754174,1.007917 0.200697,0.270068 0.415446,0.529034 0.635058,0.783796 0.198604,0.2339 0.414832,0.451334 0.638173,0.661368 0.03608,0.03294 0.07216,0.06587 0.108235,0.0988 l 3.377499,1.371129 v 0 c -0.03919,-0.03239 -0.07838,-0.06478 -0.117578,-0.09717 -0.235188,-0.199003 -0.459341,-0.410262 -0.671592,-0.633703 -0.246904,-0.259615 -0.488564,-0.524074 -0.720172,-0.797512 -0.294455,-0.34639 -0.586811,-0.694619 -0.871799,-1.048867 -0.35627,-0.444749 -0.709806,-0.891648 -1.057746,-1.342956 -0.465598,-0.592556 -0.934548,-1.18246 -1.409425,-1.767621 -0.664517,-0.815742 -1.334863,-1.626653 -2.00741,-2.435785 -0.769382,-0.934845 -1.539787,-1.869443 -2.272686,-2.833407 -0.08689,-0.118026 -0.172971,-0.236649 -0.260675,-0.354071 -0.07036,-0.0942 -0.143791,-0.186087 -0.21349,-0.280773 -0.05116,-0.0695 -0.07627,-0.165317 -0.149048,-0.211717 -1.043596,-0.665369 -2.107403,-1.299419 -3.182583,-1.912446 -0.0765,-0.04362 -0.172061,-0.06126 -0.259408,-0.05005 -0.07101,0.0091 -0.124047,0.0715 -0.186071,0.107241 -0.02693,0.04873 -0.06154,0.09394 -0.08078,0.14618 -0.02,0.05434 -0.025,0.113093 -0.03569,0.170003 -0.05462,0.290991 -0.07516,0.586962 -0.118824,0.879586 -0.07946,0.613786 -0.166328,1.226865 -0.287578,1.834033 -0.06998,0.33654 -0.143574,0.672304 -0.234773,1.003898 -0.02923,0.106257 -0.06309,0.211185 -0.09393,0.316982 -0.199662,0.684768 0.02432,-0.06902 -0.176881,0.604475 -0.05894,0.179128 -0.129405,0.397229 -0.192985,0.575027 -0.133755,0.374044 -0.288057,0.740441 -0.464748,1.09629 -0.102704,0.194183 -0.176522,0.339246 -0.288269,0.528529 -0.204835,0.346953 -0.436084,0.67759 -0.681985,0.996505 -0.147016,0.177988 -0.224726,0.2768 -0.380042,0.44635 -0.236546,0.258223 -0.488545,0.502587 -0.735087,0.751067 -0.341571,0.325697 -0.690007,0.644589 -1.07198,0.923124 -0.336966,0.235238 -0.683747,0.455816 -1.050727,0.641847 -0.280918,0.158792 -0.567319,0.308054 -0.859242,0.44564 -0.220358,0.0977 -0.446217,0.182751 -0.660458,0.29381 -0.114859,0.0634 -0.227238,0.13114 -0.343022,0.192823 -0.06088,0.02958 -0.123193,0.05307 -0.188825,0.06872 z"
       sodipodi:nodetypes="cccccccsscscscscccssccssccccccccccsccccccccsscsccccccsccscscscccccccc" />
    <path
       style="fill:#000000;stroke-width:0.264583"
       id="path28"
       d="m 60.628143,44.414458 c 0.0093,-0.0082 -0.0035,-0.02141 0.0021,-0.02962 0.0093,-0.01397 0.02746,-0.02024 0.03751,-0.03371 0.02111,-0.02831 0.03212,-0.06366 0.05509,-0.09049 0.07762,-0.09065 0.204079,-0.177666 0.294823,-0.247111 0.280736,-0.17146 0.564282,-0.339159 0.859904,-0.484076 0.131355,-0.06439 0.26485,-0.124373 0.39855,-0.183745 0.149113,-0.06622 0.298058,-0.133075 0.449815,-0.192995 0.164581,-0.06498 0.332547,-0.121037 0.498822,-0.181557 0.824949,-0.269431 1.670396,-0.468482 2.515862,-0.661043 0,0 -2.404057,-1.647045 -2.404057,-1.647045 v 0 c -0.77765,0.269719 -1.551559,0.551707 -2.339147,0.791477 -0.183475,0.04968 -0.366191,0.102233 -0.550421,0.149027 -0.181933,0.04621 -0.36526,0.08676 -0.547933,0.129955 -0.564751,0.133538 -1.131091,0.259996 -1.696818,0.389322 -0.188429,0.03132 -0.353674,0.06449 -0.543044,0.07668 -0.06233,0.004 -0.124979,-0.0016 -0.187383,0.0011 -0.05902,0.0024 -0.116811,0.0213 -0.176054,0.02119 z" />
    <path
       style="fill:#000000;stroke-width:0.264583"
       id="path29"
       d="m 58.73325,41.130476 c 0.009,-0.04488 0.06286,-0.0761 0.09643,-0.09906 0.09171,-0.06272 0.08626,-0.05612 0.193998,-0.116345 0.08233,-0.03866 0.246951,-0.116822 0.325419,-0.149596 0.06921,-0.02891 0.139797,-0.05439 0.209721,-0.08152 0.248989,-0.0966 0.498121,-0.191818 0.749039,-0.283318 0.576765,-0.183642 1.171127,-0.30361 1.762461,-0.42943 0.455051,-0.09244 0.907044,-0.198699 1.356127,-0.316611 0.328279,-0.0888 0.655145,-0.182589 0.981591,-0.277855 0.04453,-0.01339 0.08906,-0.02675 0.133585,-0.04013 0,0 -3.051159,-2.062781 -3.051159,-2.062781 v 0 c -0.03946,0.01617 -0.07892,0.03236 -0.118383,0.04854 -0.287324,0.117689 -0.575347,0.233963 -0.867825,0.338365 -0.40014,0.140636 -0.803368,0.271962 -1.20696,0.402317 -0.55812,0.176776 -1.116807,0.354417 -1.68678,0.489651 -0.364291,0.07852 -0.264279,0.05683 -0.616209,0.133184 -0.102465,0.02222 -0.408927,0.08998 -0.517824,0.109278 -0.102563,0.01818 -0.342823,0.04973 -0.451906,0.0645 -0.20298,0.0222 -0.406252,0.04191 -0.609642,0.05943 z" />
  </g>
</svg>
