<?xml version="1.0" encoding="UTF-8" standalone="no"?>
<!-- Created with Inkscape (http://www.inkscape.org/) -->

<svg
   width="15.152988mm"
   height="12.957485mm"
   viewBox="0 0 15.152988 12.957485"
   version="1.1"
   id="svg1"
   xmlns="http://www.w3.org/2000/svg"
   xmlns:svg="http://www.w3.org/2000/svg">
  <defs
     id="defs1" />
  <g
     id="layer26"
     transform="translate(-1.6994565,-15.229933)"
     style="display:none">
    <path
       style="fill:#1a1a1a;stroke-width:0.264583"
       id="path32"
       d="m 7.5480007,14.541804 c 0.066393,0.343366 -0.033987,-0.187385 0.041083,0.261364 0.060614,0.362335 0.066925,0.275142 0.1000876,0.685621 0.017296,0.214088 0.027105,0.652532 0.033228,0.864673 0.012301,0.658898 -0.02531,1.317133 -0.0414,1.975679 -0.00861,0.587789 -0.09963,1.168531 -0.2054307,1.74548 -0.139538,0.625291 -0.3239741,1.244323 -0.5698736,1.836637 -0.049794,0.119941 -0.1057365,0.237237 -0.1586047,0.355856 -0.2438503,0.542308 -0.5402818,1.058786 -0.7993176,1.593399 -0.030703,0.0709 -0.061405,0.141791 -0.092107,0.212686 -0.031502,0.06668 -0.064823,0.132539 -0.094506,0.200052 -0.031972,0.07272 -0.058391,0.147797 -0.090399,0.220499 -0.086893,0.19737 -0.1866921,0.390012 -0.2831507,0.58281 -0.1582055,0.302357 -0.3086484,0.609373 -0.5002279,0.892409 -0.1079386,0.162521 -0.2393571,0.305685 -0.3675795,0.451669 -0.014835,0.01343 -0.029672,0.02686 -0.044508,0.04029 0,0 3.3664294,2.03213 3.3664294,2.03213 v 0 c 0.015018,-0.02072 0.030038,-0.04142 0.045056,-0.06213 0.1199644,-0.170862 0.2517021,-0.334131 0.3347212,-0.527962 0.1702136,-0.312293 0.318693,-0.636043 0.4672655,-0.959017 0.1781503,-0.412951 0.3663265,-0.821444 0.5453883,-1.234013 0.2199949,-0.559255 0.4166351,-1.127589 0.6579785,-1.678288 0.2948025,-0.733275 0.5946165,-1.466994 0.8158925,-2.22658 0.0713,-0.313117 0.143283,-0.625181 0.200068,-0.941334 0.02427,-0.135105 0.07647,-0.432226 0.08876,-0.57187 0.0077,-0.08796 0.0062,-0.176491 0.0093,-0.264737 -0.004,-0.6874 -0.09818,-1.370015 -0.102041,-2.057669 0.0011,-0.308173 -0.0049,-0.525464 0.02204,-0.83134 0.03385,-0.384448 0.03512,-0.261467 0.100087,-0.583627 0.07412,-0.367526 -0.02322,0.04753 0.04108,-0.219499 z" />
    <path
       style="fill:#1a1a1a;stroke-width:0.264583"
       id="path35"
       d="m 7.8472912,21.615121 c 0.4131858,0.249312 0.724254,0.634026 1.0271882,1.002503 0.3465507,0.427837 0.6066117,0.915644 0.8998595,1.37959 0.3934711,0.62555 0.8137191,1.233676 1.2118721,1.856166 0.04197,0.0666 0.08395,0.133203 0.12592,0.199804 0,0 3.435217,1.486667 3.435217,1.486667 v 0 c -0.05906,-0.07254 -0.118113,-0.145076 -0.17717,-0.217612 -0.224048,-0.289039 -0.448687,-0.580528 -0.653396,-0.883777 -0.207928,-0.308018 -0.395601,-0.630431 -0.585716,-0.949492 -0.130642,-0.243707 -0.253332,-0.492646 -0.389327,-0.733419 -0.122106,-0.216185 -0.139705,-0.23339 -0.278115,-0.442061 -0.04931,-0.07434 -0.09844,-0.148798 -0.147665,-0.223196 -0.05379,-0.0706 -0.105618,-0.142737 -0.16138,-0.211789 -0.215531,-0.266898 -0.455249,-0.516979 -0.642222,-0.805841 z" />
  </g>
  <g
     id="layer25"
     style="display:none"
     transform="translate(-1.9333174,-15.136389)">
    <path
       style="fill:#1a1a1a;stroke-width:0.264583"
       id="path31"
       d="m 5.1211736,20.038423 c 0.1825268,-0.1362 0.3978034,-0.219681 0.6058363,-0.307516 0.1141563,-0.0482 0.2279594,-0.09735 0.3434982,-0.142136 0.1476327,-0.05723 0.2942699,-0.118106 0.4458594,-0.16383 0.1711899,-0.05164 0.3473186,-0.0852 0.5209778,-0.127794 0.6335303,-0.12888 1.2752838,-0.246068 1.9239225,-0.260311 0.8714488,-0.01914 1.7328732,0.102171 2.5928602,0.222421 0.84416,0.148943 1.697038,0.329182 2.479232,0.692557 0.154689,0.07186 0.301903,0.158827 0.452855,0.23824 -0.87238,-0.496947 -1.74476,-0.993895 -2.61714,-1.490842 0.405499,0.253729 0.789317,0.551272 1.062003,0.950146 0.131527,0.192393 0.166855,0.29553 0.259585,0.503533 0.111873,0.326625 0.155759,0.62047 -0.05626,0.921071 -0.148826,0.211008 -0.257853,0.257792 -0.470259,0.406683 -0.660133,0.349803 -1.405429,0.488599 -2.146689,0.519828 -0.158598,0.0067 -0.317468,0.0024 -0.476202,0.0036 C 9.2646742,21.969416 8.5049552,21.786717 7.777531,21.518238 7.6327772,21.464812 7.4910065,21.403627 7.3477442,21.346321 7.0958037,21.232408 6.8677099,21.133968 6.6234762,21.006513 6.5289662,20.957192 6.2521559,20.796863 6.3446201,20.84992 11.573008,23.850023 9.9382521,22.977699 8.8819793,22.277894 8.511642,22.027863 8.1717024,21.737018 7.8327146,21.446898 7.5348313,21.208945 7.2473888,20.953644 6.9925964,20.669435 6.9271059,20.582932 6.8432774,20.512044 6.7734661,20.429532 6.7085405,20.352795 6.6557834,20.264048 6.5973136,20.182407 6.4935681,20.020487 6.3743501,19.865899 6.24372,19.724627 c -0.1451293,-0.114695 0.024926,0.02481 -0.1054902,-0.09812 -0.045382,-0.04278 -0.045405,-0.02602 -0.087106,-0.07287 -0.072151,-0.08105 0.00481,-0.01916 -0.069838,-0.07355 -0.064283,-0.03806 -0.081393,-0.110997 -0.1336061,-0.158282 0,0 -3.6711156,-1.47186 -3.6711156,-1.47186 v 0 c 0.054166,0.03846 0.023714,0.02651 0.091958,0.03427 0.00694,0.0036 0.061274,0.07402 0.065405,0.07927 0.083726,0.112815 -0.020259,-0.01522 0.080678,0.07366 0.033751,0.02972 0.053532,0.07287 0.086164,0.103806 0.017429,0.01653 0.040298,0.02658 0.057786,0.04304 0.019631,0.01848 0.035279,0.04078 0.052918,0.06117 0.044985,0.03289 0.093125,0.06164 0.1358817,0.09738 0.1009922,0.08441 0.1844177,0.189887 0.2776418,0.282221 0.2001398,0.305295 -0.084586,-0.125824 0.1177912,0.170273 0.092331,0.135089 0.1618604,0.283963 0.2944381,0.387958 0.07901,0.08128 0.1523603,0.167976 0.2321475,0.248494 0.2067409,0.208633 0.4408845,0.389657 0.6466726,0.599468 0.3625739,0.284223 0.7009982,0.598887 1.0716967,0.872725 1.4705793,1.060133 3.0501677,2.007503 4.7555463,2.629354 0.452684,0.154032 0.911103,0.309508 1.379301,0.410661 0.451672,0.09758 0.917106,0.123883 1.377752,0.122855 0.360247,-0.02171 0.617199,-0.02969 0.97668,-0.08261 0.455781,-0.0671 1.008668,-0.190445 1.436516,-0.360889 0.137648,-0.05484 0.266932,-0.128695 0.400399,-0.193042 0.1193,-0.0788 0.247672,-0.145348 0.357902,-0.236407 0.266399,-0.220068 0.496569,-0.55397 0.554282,-0.900272 0.0384,-0.230395 -0.01693,-0.370327 -0.06792,-0.590345 -0.03936,-0.09835 -0.07311,-0.199125 -0.118082,-0.295036 -0.153839,-0.328115 -0.355774,-0.652217 -0.610114,-0.912055 -0.218513,-0.223237 -0.406995,-0.343322 -0.660304,-0.527834 -1.140533,-0.653526 -2.272992,-1.32135 -3.421599,-1.960578 -0.142725,-0.07943 -0.29705,-0.13661 -0.449959,-0.19404 C 10.560785,17.536507 9.7757926,17.436342 8.9970437,17.35631 8.7340089,17.33294 8.4712676,17.306 8.20794,17.28621 7.7649834,17.25292 6.833168,17.20218 6.4023424,17.185217 c -0.3118929,-0.01228 -0.6240041,-0.0362 -0.9360088,-0.02719 -0.3594454,0.01038 -0.9097758,0.114074 -1.2687376,0.174163 -0.7353096,0.164666 -0.3640878,0.08768 -1.1137593,0.230505 -0.4127934,0.09159 -0.813729,0.235884 -1.2308082,0.310738 z" />
  </g>
  <g
     id="layer27"
     style="display:none"
     transform="translate(-1.9333174,-15.136389)">
    <path
       style="fill:#1a1a1a;stroke-width:0.264583"
       id="path37"
       d="m 5.1616341,19.669477 c 0.1408094,0.268988 0.2337835,0.559985 0.3344101,0.845681 0.1922785,0.45009 0.406029,0.890385 0.6497963,1.314787 0.276053,0.46725 0.6277475,0.885336 0.9837732,1.293127 0.5250595,0.597792 1.1818723,1.056379 1.8300538,1.509303 0.1609762,0.105768 0.3201281,0.214365 0.4829283,0.317303 0.1639227,0.103647 0.3294047,0.204917 0.4970907,0.302357 0.7485485,0.43497 2.6192625,1.54815 3.8557555,2.211113 1.179866,0.632603 -0.305658,-0.172793 0.680328,0.362958 0,0 -2.887677,-2.31415 -2.887677,-2.31415 v 0 c -0.203699,-0.09578 -0.336071,-0.156165 -0.54328,-0.262872 -0.12974,-0.06681 -0.512237,-0.279689 -0.386577,-0.205486 0.822771,0.485851 1.651972,0.960733 2.478235,1.440623 0.164546,0.09557 -0.330478,-0.188824 -0.493085,-0.287656 -0.158563,-0.09637 -0.31351,-0.198575 -0.470265,-0.297862 -0.13888,-0.0981 -0.279947,-0.193163 -0.416639,-0.294284 C 11.337385,25.294377 10.949929,24.941147 10.586465,24.56827 10.210889,24.193467 9.8615755,23.793294 9.5696927,23.348814 9.334055,22.967672 9.1163194,22.573092 8.9772382,22.145107 8.965967,22.112021 8.8850537,21.873641 8.8731085,21.842003 c -0.018034,-0.04777 -0.041567,-0.09341 -0.058241,-0.141669 -0.041154,-0.119115 -0.064498,-0.244262 -0.087183,-0.367852 z" />
  </g>
  <g
     id="layer24"
     style="display:none"
     transform="translate(-1.9333174,-15.136389)">
    <path
       style="fill:#1a1a1a;stroke-width:0.264583"
       id="path25"
       d="m 5.4358103,14.440442 c 0.015004,0.03407 0.033354,0.06686 0.045017,0.102213 0.015954,0.04836 0.025617,0.09858 0.037556,0.148087 0.033189,0.13761 0.063848,0.270365 0.083808,0.411083 0.026654,0.187914 0.027466,0.287719 0.036916,0.475972 0.01293,0.430119 0.042773,0.859566 0.056322,1.289619 0.00359,0.41002 0.00912,0.820491 0.00429,1.230559 -0.016145,0.276568 -0.00198,0.55073 0.024797,0.82599 0.020638,0.286574 0.044776,0.572914 0.064331,0.859538 0.013856,0.196168 0.035808,0.391611 0.055137,0.587279 0.027864,0.141746 0.028625,0.285736 0.031619,0.429531 -0.00423,0.173527 0.00711,0.346817 0.014375,0.520096 0.014698,0.22555 0.027781,0.45044 0.02549,0.67656 -4.762e-4,0.261634 0.088748,0.510862 0.1452087,0.763116 0.041385,0.20509 0.06803,0.412625 0.086859,0.620868 0.00198,0.136843 0.037414,0.267054 0.065987,0.399348 0.02268,0.118417 0.012462,0.244151 0.063916,0.356168 0.012467,0.02714 0.02958,0.05189 0.04437,0.07784 0.078409,0.19499 0.1805167,0.381703 0.3114196,0.546182 1.0372362,1.104678 2.4850167,1.760105 3.8637234,2.359343 0.284976,0.02854 0.563236,0.09873 0.844352,0.150779 0.08329,0.0131 0.137922,0.02977 0.222249,0.01206 0.04213,-0.0089 0.08121,-0.02862 0.121936,-0.04258 0.131479,-0.04509 0.263362,-0.08887 0.394638,-0.134567 0.208327,-0.068 0.411567,-0.149667 0.61758,-0.223552 0.12906,-0.03743 0.254096,-0.08666 0.381328,-0.129262 0.102787,-0.03442 0.178282,-0.04814 0.278709,-0.08818 0.04258,-0.01696 0.08304,-0.03885 0.124555,-0.05827 0.203619,-0.07053 0.376185,-0.201927 0.531982,-0.347467 0.102545,-0.103729 0.211938,-0.199272 0.304647,-0.312778 0.05688,-0.08389 0.118498,-0.163959 0.17911,-0.245222 0,0 -3.392948,-2.019933 -3.392948,-2.019933 v 0 c -0.06109,0.07671 -0.121457,0.153339 -0.167418,0.240428 -0.07996,0.09887 -0.171129,0.189302 -0.264304,0.275539 -0.121286,0.114466 -0.258725,0.200696 -0.415187,0.260863 -0.119124,0.04564 -0.237056,0.09401 -0.3595727,0.130177 -0.112,0.03306 -0.18373,0.04548 -0.297403,0.07498 -0.04585,0.0119 -0.09125,0.02547 -0.136879,0.0382 -0.193644,0.07125 -0.375794,0.17144 -0.575776,0.225996 -0.12046,0.0306 -0.247179,0.06773 -0.373268,0.05965 -0.09086,-0.0058 -0.177398,-0.04943 -0.269149,-0.05097 -0.27496,-0.04881 -0.5624116,-0.100469 -0.7996428,-0.255507 -1.177263,-0.677212 0.6585527,0.378672 3.1607505,1.83776 0.033,0.01924 -0.06846,-0.03407 -0.101505,-0.05324 -0.05688,-0.033 -0.143912,-0.0924 -0.196669,-0.131958 -0.02927,-0.02195 -0.05721,-0.04561 -0.08582,-0.06842 -0.04715,-0.04312 -0.09882,-0.08146 -0.143158,-0.127463 -0.08186,-0.08493 -0.1375117,-0.192139 -0.2006457,-0.290453 -0.0082,-0.02671 -0.01328,-0.05456 -0.0245,-0.08014 -0.01823,-0.04153 -0.04019,-0.05308 -0.06441,-0.08895 -0.03295,-0.0488 -0.04155,-0.101754 -0.04172,-0.159906 -0.0063,-0.06864 -0.01062,-0.134519 -0.03004,-0.201007 -0.01262,-0.04323 -0.0335,-0.08379 -0.04557,-0.127178 -0.0074,-0.02646 -0.0103,-0.05396 -0.01545,-0.08093 -0.04393,-0.224575 -0.06187,-0.454708 -0.131292,-0.674551 -0.0102,-0.0487 -0.02041,-0.0974 -0.03061,-0.146104 -0.006,-0.0484 -0.0089,-0.09731 -0.01812,-0.145206 -0.0074,-0.03829 -0.02259,-0.07469 -0.03169,-0.11261 -0.02156,-0.08983 -0.03459,-0.182129 -0.03716,-0.274464 -0.02292,-0.222012 -0.04444,-0.444019 -0.0505,-0.667296 0.0078,-0.169539 0.02029,-0.33912 0.01473,-0.508953 8.99e-4,-0.157077 0.0012,-0.314601 -0.005,-0.471382 -0.03313,-0.20255 -0.09244,-0.399818 -0.116251,-0.603877 -0.03832,-0.278382 -1.5e-5,0.02454 -0.02616,-0.269685 -0.0173,-0.194676 -0.05651,-0.38767 -0.05574,-0.583851 -0.01016,-0.279171 -0.02025,-0.557232 -0.06183,-0.834048 -0.03963,-0.412119 -0.02958,-0.826533 -0.03941,-1.240116 -0.0023,-0.145883 -2.1e-4,-0.291843 -0.0045,-0.437679 -0.0086,-0.290397 -0.03873,-0.580289 -0.06362,-0.869534 -0.0122,-0.234681 -0.01726,-0.466767 -0.01621,-0.701679 4.5e-4,-0.102567 -0.01001,-0.205151 -0.0061,-0.307643 0.0014,-0.03494 0.0094,-0.06929 0.01413,-0.103936 z" />
  </g>
  <g
     id="layer22"
     style="display:none"
     transform="translate(-1.9333174,-15.136389)">
    <path
       style="fill:#1a1a1a;stroke-width:0.264583"
       id="path30"
       d="m 14.245277,23.756403 c -0.03052,-0.320013 -0.03,-0.642236 -0.06022,-0.962266 -0.01077,-0.114074 -0.02657,-0.227616 -0.03985,-0.341425 -0.04712,-0.353268 -0.09224,-0.710065 -0.175252,-1.057297 -0.0925,-0.386949 -0.23383,-0.760728 -0.368632,-1.134164 -0.06147,-0.143317 -0.119959,-0.287953 -0.18442,-0.429951 -0.06573,-0.144794 -0.350164,-0.729146 -0.424258,-0.87936 -0.144268,-0.292481 -0.213179,-0.438795 -0.379492,-0.714931 -0.06318,-0.104899 -0.132476,-0.205989 -0.198714,-0.308984 -0.13692,-0.203216 -0.27049,-0.409254 -0.419361,-0.604121 -0.03017,-0.03949 -0.05063,-0.09084 -0.09334,-0.116262 -1.135332,-0.675768 -2.2669824,-1.35982 -3.4323814,-1.982305 -0.06493,-0.03468 -0.145639,0.0215 -0.218459,0.03225 -0.331844,0.08221 -0.664748,0.170027 -0.975557,0.315377 -0.07565,0.03538 -0.152046,0.07029 -0.222648,0.1149 -0.07628,0.0482 -0.144308,0.108379 -0.216462,0.162568 -0.257325,0.198394 -0.523768,0.409732 -0.698243,0.689676 -0.09187,0.147401 -0.126182,0.257221 -0.188553,0.417384 -0.13964,0.460574 -0.136033,0.948054 -0.143827,1.425088 -0.0013,0.327864 -0.0077,0.658366 0.04171,0.983563 0.0201,0.132144 0.06322,0.323317 0.09175,0.455793 0.09972,0.461498 0.339626,0.871004 0.528418,1.298914 0.162624,0.326913 0.291614,0.686565 0.52972,0.970051 0.05626,0.06698 0.120824,0.126532 0.181236,0.189797 0.07288,0.06347 0.143238,0.129962 0.218645,0.190411 0.176335,0.141356 0.386203,0.281548 0.571805,0.408166 0.229735,0.156726 0.461326,0.310403 0.69432,0.462217 0.32815,0.207149 0.64576,0.428312 0.958342,0.658216 0.152077,0.117532 0.305151,0.233595 0.4541244,0.355046 0.02272,0.01852 0.03897,0.05997 0.06798,0.05578 0.02704,-0.0039 0.02965,-0.04622 0.04023,-0.0714 0.01589,-0.03782 0.02589,-0.07786 0.03884,-0.11679 -0.03223,0.0076 -0.06495,0.01342 -0.09668,0.0229 -0.07488,0.02238 -0.1472054,0.0533 -0.2229314,0.07263 -0.47507,0.121298 -0.969185,0.143683 -1.456191,0.16988 -0.141793,0.0017 -0.283604,0.0022 -0.425378,0.0051 -0.534958,0.01063 -0.430735,0.02101 -0.981947,0.0097 -0.439991,-0.009 -0.87799,-0.04052 -1.316651,-0.07324 -0.422578,-0.04105 -0.847217,-0.03981 -1.271082,-0.02914 -0.276988,0.02451 -0.552171,-0.02127 -0.825209,-0.06192 0,0 3.099089,2.298246 3.099089,2.298246 v 0 c 0.281112,0.01172 0.562276,0.02016 0.843674,0.0135 0.369839,-0.01436 0.737729,-0.05316 1.107692,-0.06589 0.393373,-0.01868 0.785406,-0.03281 1.179409,-0.02914 2.2036504,0.02055 -1.164214,-0.0016 1.0517074,0.02998 0.149305,0.0021 0.298619,-0.0035 0.447929,-0.0052 0.416477,-0.01867 0.820663,-0.04952 1.235166,-0.09448 0.02846,-0.0031 0.648233,-0.07863 0.695177,-0.08924 0.08349,-0.01885 0.161548,-0.05661 0.242321,-0.08491 0.101268,-0.125407 0.255013,-0.235264 0.207403,-0.424965 -0.01182,-0.04712 -0.06541,-0.07211 -0.10186,-0.104231 -0.162469,-0.143174 -0.349881,-0.256874 -0.522149,-0.38709 -0.15608,-0.128827 -0.31394,-0.254742 -0.472557,-0.380392 -0.04387,-0.03475 -0.08514,-0.07295 -0.131088,-0.104885 -0.110849,-0.07705 -0.236726,-0.130947 -0.34544,-0.211381 -0.168554,-0.100793 -0.34003,-0.196716 -0.507243,-0.299717 -0.343784,-0.211766 -0.672937,-0.445838 -0.998604,-0.68412 -0.0744,-0.06483 -0.228874,-0.194285 -0.297016,-0.272364 -0.04331,-0.04963 -0.07899,-0.105441 -0.117878,-0.158608 -0.141099,-0.192902 -0.2786644,-0.38897 -0.3754494,-0.608968 -0.110291,-0.236525 -0.11485,-0.236138 -0.208617,-0.47694 -0.02702,-0.06939 -0.04966,-0.140436 -0.07716,-0.209632 -0.072,-0.181152 -0.160849,-0.355544 -0.227994,-0.538755 -0.149335,-0.452253 -0.228895,-0.875662 -0.201198,-1.355144 0.0057,-0.433596 0.0076,-0.8723 0.117858,-1.294799 0.01942,-0.05732 0.03492,-0.116131 0.05827,-0.171969 0.133542,-0.319316 0.382366,-0.563179 0.665754,-0.753154 0.3313904,-0.187109 0.6946084,-0.362016 1.0847744,-0.366513 0.07516,-8.74e-4 0.149639,0.01435 0.224459,0.02153 1.270672,0.571454 0.319017,0.151072 -2.9558714,-1.770213 -0.05144,-0.03018 0.10181,0.0627 0.148539,0.09976 0.22481,0.178321 0.407555,0.404674 0.590815,0.622937 0.2068,0.271426 0.271336,0.345574 0.459836,0.637596 0.327356,0.507134 0.5945114,1.051495 0.7962444,1.620449 0.236532,0.667886 0.454896,1.353817 0.511313,2.06378 0.0034,0.367763 3.71e-4,0.75131 -0.111704,1.105186 z" />
  </g>
  <g
     id="layer21"
     transform="translate(0.82624049,-14.621895)"
     style="display:none">
    <path
       style="fill:#1a1a1a;stroke-width:0.264583"
       id="path26"
       d="m 7.8713255,14.140449 c 0.077363,0.245237 0.076768,0.508731 0.080361,0.763878 0.00656,0.345158 0.035759,0.688637 0.04114,1.034088 0.00271,0.224831 0.00823,0.449747 1.852e-4,0.674552 -0.0027,0.07537 -0.012248,0.150505 -0.012232,0.225923 2.14e-5,0.105974 0.01039,0.211726 0.012343,0.317683 0.00225,0.121745 1.606e-4,0.243532 2.41e-4,0.365298 -0.00345,0.12708 -0.00874,0.254123 -0.010356,0.381239 -0.011729,0.92416 0.015118,-0.07588 -0.00901,0.850972 -0.010295,0.395411 -0.027954,0.790369 -0.036659,1.185827 -0.00629,0.392905 -0.027329,0.787045 -0.012134,1.180066 0.0051,0.131796 0.021918,0.322832 0.032699,0.455718 0.02782,0.289449 0.066063,0.57989 0.133586,0.863145 0.036249,0.152061 0.089759,0.327749 0.1336431,0.477641 0.024609,0.07793 0.049197,0.155859 0.07383,0.233778 0.054751,0.173187 0.085259,0.281395 0.1542642,0.45017 0.1038726,0.254053 0.2340968,0.49344 0.3679275,0.732465 0.2112457,0.357819 0.445308,0.701878 0.6848663,1.04124 0.2230884,0.30768 0.5262552,0.539258 0.8200082,0.774656 0,0 3.437644,1.380898 3.437644,1.380898 v 0 C 13.515566,27.328645 13.25572,27.134793 13.054781,26.883839 12.75186,26.561825 12.46612,26.220436 12.230806,25.845366 c -0.04688,-0.07378 -0.0965,-0.145903 -0.140648,-0.221356 -0.201403,-0.3442 -0.34529,-0.722234 -0.465269,-1.101135 -0.133721,-0.413659 -0.22577,-0.837953 -0.281588,-1.269198 -0.07803,-0.554513 -0.161533,-1.109097 -0.177078,-1.670007 -0.01558,-0.538025 -0.0239,-1.077131 0.0073,-1.614882 0.0078,-0.134465 0.02154,-0.26852 0.03204,-0.402802 0.0096,-0.122756 0.01881,-0.245542 0.02822,-0.368312 0.01431,-0.113388 0.02863,-0.226775 0.04294,-0.340162 0.01769,-0.09583 0.04052,-0.190843 0.05307,-0.287476 0.01012,-0.07793 0.01041,-0.156816 0.0148,-0.235273 0.01256,-0.22481 0.02706,-0.449841 0.02694,-0.675079 0.0049,-0.336607 0.03672,-0.671633 0.03,-1.008059 -0.0085,-0.251466 -0.02895,-0.507849 0.0085,-0.757182 z" />
    <path
       style="fill:#1a1a1a;stroke-width:0.264583"
       id="path27"
       d="m 7.9275817,16.448945 c -0.5301027,0.197417 -1.0890252,0.294915 -1.6439401,0.391824 -0.2667291,0.04658 -0.5335434,0.09267 -0.8003151,0.139009 -0.3093709,0.03475 -0.6182317,0.07439 -0.9281125,0.10425 -0.4449982,0.04288 -1.347243,0.104302 -1.8044268,0.138916 -0.6463521,0.04894 -1.2923727,0.101531 -1.93800917,0.159058 -0.48674774,0.0623 -0.96650356,0.170535 -1.43533551,0.314133 0,0 3.20423168,2.139336 3.20423168,2.139336 v 0 c 0.3473884,-0.201355 0.7246596,-0.335381 1.1147864,-0.430016 0.1402686,-0.03676 0.2797183,-0.0768 0.4208061,-0.110281 1.2786822,-0.303424 2.5933058,-0.439676 3.9034671,-0.507109 0.3226293,-0.0078 0.6453122,-0.01354 0.9678879,-0.02327 0.7194148,-0.0217 1.4398433,-0.06063 2.1596793,-0.02988 z" />
    <path
       style="fill:#1a1a1a;stroke-width:0.264583"
       id="path28"
       d="m 8.0337476,20.026967 c -0.033961,0.0084 -0.067462,0.01897 -0.1018823,0.02525 -0.1480957,0.02703 -0.3623947,0.04846 -0.5019003,0.06327 -0.5420661,0.05753 -1.083356,0.0895 -1.6276904,0.117431 -0.9215231,0.04803 -1.859684,0.09705 -2.7489483,0.366811 -0.1502437,0.04558 -0.2957753,0.105446 -0.443663,0.158168 -0.5822294,0.215858 -1.1565655,0.452539 -1.72748811,0.696545 0,0 3.13525121,2.05276 3.13525121,2.05276 v 0 c 0.4784077,-0.314278 0.9871051,-0.575238 1.5293493,-0.762792 0.3620977,-0.124023 0.4769496,-0.172645 0.8513125,-0.263148 0.7014525,-0.16958 1.4209548,-0.242817 2.1406781,-0.274137 0.2127869,-0.0035 0.425549,-0.01162 0.6383607,-0.0104 0.6860223,0.0039 1.372098,0.06487 2.052097,0.15189 z" />
  </g>
  <g
     id="layer17"
     style="display:none"
     transform="translate(-1.9333174,-15.136389)">
    <path
       style="display:inline;fill:#1a1a1a;stroke-width:0.264583"
       id="path16-5"
       d="m 7.2338893,15.345833 c 0.02734,0.02887 0.0592,0.05405 0.082,0.08662 0.202725,0.289556 0.239133,0.73782 0.263468,1.077554 0.02933,0.576569 -0.05189,1.151199 -0.09534,1.725233 -0.06152,0.380088 -0.06188,0.766699 -0.07752,1.150448 -0.0065,0.159366 -0.0187,0.318597 -0.0196,0.478093 -0.0011,0.19663 0.009,0.393162 0.01356,0.589742 -0.0025,0.20152 -0.0051,0.403039 -0.0076,0.604559 -0.01779,0.876467 -0.06529,1.75308 -0.183461,2.622065 -0.02818,0.206495 -0.07014,0.413317 -0.07132,0.622404 0,0 3.5480337,1.7038 3.5480337,1.7038 v 0 c -0.01665,-0.02965 -0.05763,-0.100322 -0.06695,-0.128451 -0.05343,-0.16132 -0.06188,-0.337836 -0.08838,-0.503859 -0.103646,-0.915508 -0.142455,-1.837822 -0.107775,-2.758926 0.01105,-0.195349 0.01562,-0.391173 0.03316,-0.586047 0.01619,-0.179926 0.04682,-0.35827 0.06797,-0.53768 0.01785,-0.151381 0.02957,-0.30347 0.04902,-0.454653 0.12911,-1.003302 -0.0048,0.13643 0.128938,-0.773981 0.01563,-0.106363 0.02257,-0.213822 0.03385,-0.320733 0.09843,-0.58075 0.17915,-1.164176 0.173359,-1.754917 -0.0041,-0.181849 -0.0016,-0.36384 -0.0079,-0.54563 -0.0067,-0.196926 -0.0302,-0.391785 -0.04938,-0.587441 -0.0038,-0.0383 -0.0043,-0.07685 -0.0064,-0.115275 z" />
    <path
       style="display:inline;fill:#1a1a1a;stroke-width:0.264583"
       id="path17-7"
       d="m 14.058793,24.52173 c -0.04275,0.01455 -0.08391,0.03506 -0.128243,0.04366 -0.125445,0.02433 -0.25241,0.04069 -0.379412,0.0548 -0.932355,0.103616 -1.003208,0.103793 -2.058002,0.0731 -1.06227,-0.03091 -1.7784385,-0.0977 -2.8387925,-0.178087 -1.1281762,-0.09573 -2.2546412,-0.210325 -3.3786392,-0.346522 -0.546636,-0.06624 -1.091818,-0.142895 -1.638473,-0.208843 -0.630665,-0.06027 -1.259807,-0.133379 -1.883442,-0.245742 -0.249237,-0.05409 -0.502511,-0.08922 -0.751817,-0.142848 -0.14043401,-0.03021 -0.27851201,-0.07039 -0.41902901,-0.100612 -0.147986,-0.03039 -0.07563,-0.01634 -0.217027,-0.04238 0,0 3.11620501,2.348609 3.11620501,2.348609 v 0 c 0.125045,0.02113 0.06009,0.01001 0.194842,0.03344 0.338821,0.05841 0.685919,0.05672 1.024959,0.11705 0.626384,0.08424 1.253026,0.198634 1.887067,0.194286 0.412218,-0.02958 0.823641,-0.06405 1.236791,-0.07969 0.9733962,-0.03687 1.9478162,-0.02516 2.9209737,0.01468 0.460715,0.0258 0.921952,0.04355 1.382146,0.0774 0.944942,0.06951 2.032933,0.178759 2.970674,0.321807 0.420164,0.06409 0.836351,0.151995 1.254436,0.228491 0.903717,0.165349 0.380102,0.0726 0.909274,0.1656 z" />
  </g>
  <g
     id="layer16"
     style="display:none"
     transform="translate(-1.9333174,-15.136389)">
    <path
       style="display:inline;fill:#1a1a1a;stroke-width:0.264583"
       id="path16"
       d="m 10.758149,26.008672 c -0.02734,-0.02887 -0.0592,-0.05405 -0.082,-0.08662 -0.202725,-0.289556 -0.239133,-0.73782 -0.263468,-1.077554 -0.02933,-0.576569 0.05189,-1.151199 0.09534,-1.725233 0.06152,-0.380088 0.06188,-0.766699 0.07752,-1.150448 0.0065,-0.159366 0.0187,-0.318597 0.0196,-0.478093 0.0011,-0.19663 -0.009,-0.393162 -0.01356,-0.589742 0.0025,-0.20152 0.0051,-0.403039 0.0076,-0.604559 0.01779,-0.876467 0.06529,-1.75308 0.183461,-2.622065 0.02818,-0.206495 0.07014,-0.413317 0.07132,-0.622404 0,0 -3.5480342,-1.7038 -3.5480342,-1.7038 v 0 c 0.01665,0.02965 0.057635,0.100322 0.066951,0.128451 0.053427,0.16132 0.061878,0.337836 0.088376,0.503859 0.1036455,0.915508 0.1424554,1.837822 0.1077754,2.758926 -0.011052,0.195349 -0.015618,0.391173 -0.033157,0.586047 -0.016192,0.179926 -0.046819,0.35827 -0.067971,0.53768 -0.017846,0.151381 -0.029566,0.30347 -0.049021,0.454653 -0.1291108,1.003302 0.00482,-0.13643 -0.1289386,0.773981 -0.015626,0.106363 -0.022572,0.213822 -0.033855,0.320733 -0.098434,0.58075 -0.1791501,1.164176 -0.1733587,1.754917 0.00414,0.181849 0.00164,0.36384 0.00785,0.54563 0.00672,0.196926 0.030199,0.391785 0.049376,0.587441 0.00375,0.0383 0.00428,0.07685 0.00641,0.115275 z" />
    <path
       style="display:inline;fill:#1a1a1a;stroke-width:0.264583"
       id="path17"
       d="m 3.9332452,16.832775 c 0.042748,-0.01455 0.083912,-0.03506 0.1282427,-0.04366 0.1254453,-0.02433 0.2524104,-0.04069 0.3794117,-0.0548 0.9323549,-0.103616 1.0032079,-0.103793 2.0580022,-0.0731 1.0622703,0.03091 1.7784394,0.0977 2.8387931,0.178087 1.1281761,0.09573 2.2546411,0.210325 3.3786391,0.346522 0.546636,0.06624 1.091818,0.142895 1.638473,0.208843 0.630665,0.06027 1.259807,0.133379 1.883442,0.245742 0.249237,0.05409 0.502511,0.08922 0.751817,0.142848 0.140434,0.03021 0.278512,0.07039 0.419029,0.100612 0.147986,0.03039 0.07563,0.01634 0.217027,0.04238 0,0 -3.116205,-2.348609 -3.116205,-2.348609 v 0 c -0.125045,-0.02113 -0.06009,-0.01001 -0.194842,-0.03344 -0.338821,-0.05841 -0.685919,-0.05672 -1.024959,-0.11705 -0.626384,-0.08424 -1.253026,-0.198634 -1.887067,-0.194286 -0.412218,0.02958 -0.823641,0.06405 -1.236791,0.07969 -0.973396,0.03687 -1.9478162,0.02516 -2.9209741,-0.01468 -0.4607155,-0.0258 -0.9219525,-0.04355 -1.3821465,-0.0774 C 4.9181958,15.150963 3.8302045,15.041715 2.892464,14.898667 2.4722994,14.834573 2.0561128,14.746672 1.6380281,14.670176 0.73431055,14.504827 1.257926,14.597574 0.72875375,14.504576 Z" />
  </g>
  <g
     id="layer13"
     style="display:none"
     transform="translate(-1.9333174,-15.136389)">
    <path
       style="fill:#1a1a1a;stroke-width:0.264583"
       id="path13-0"
       d="m 5.5002189,19.361956 c 0.131052,0.02575 0.09548,0.01439 0.264215,0.07989 0.386647,0.150095 0.341341,0.132349 0.739365,0.364639 0.323461,0.188773 0.754777,0.457782 1.068124,0.651054 0.196306,0.128298 0.397734,0.249079 0.588915,0.384893 0.336362,0.238948 0.624306,0.487296 0.929915,0.76106 0.26146,0.234214 0.511282,0.478016 0.751814,0.733355 0.105004,0.101025 0.1921941,0.218405 0.3060441,0.310141 0.0675,0.05438 0.1433,0.09974 0.215644,0.147258 0.0712,0.05636 0.147057,0.104385 0.21464,0.165254 0.07532,0.07074 0.169308,0.115914 0.248025,0.181596 0.01528,0.01235 0.05942,0.04402 0.07183,0.06589 0.0036,0.0063 0.0018,0.01439 0.0027,0.02158 0.570526,-1.134818 1.163833,-2.258467 1.71158,-3.404453 0.0416,-0.08704 -0.120082,0.151676 -0.189075,0.219099 -0.121998,0.119219 -0.255155,0.226458 -0.382732,0.339687 -0.953832,0.823455 -1.910694,1.645088 -2.8186661,2.51963 -0.28771,0.277117 -0.564938,0.564927 -0.849621,0.845155 -0.247331,0.243461 -0.497597,0.483923 -0.746395,0.725885 -0.564553,0.544758 -1.150001,1.06692 -1.739377,1.584436 0,0 -1.274454,3.099599 -1.274454,3.099599 v 0 c 0.676669,-0.807042 1.346052,-1.620868 2.065084,-2.391161 0.257606,-0.2682 0.507492,-0.544034 0.772817,-0.8046 0.473555,-0.46506 1.017227,-0.94139 1.540154,-1.35306 0.400411,-0.31522 0.802641,-0.603699 1.2434901,-0.858093 0.139767,-0.08065 0.288033,-0.14559 0.432049,-0.218384 0.09316,-0.03654 0.183564,-0.08109 0.279482,-0.109614 0.05767,-0.01715 0.148792,0.02571 0.178532,-0.02659 2.16482,-3.807145 2.929305,-2.800369 1.710982,-3.620319 -0.07956,-0.06003 -0.149375,-0.132258 -0.233223,-0.187053 -0.09313,-0.07291 -0.188341,-0.141407 -0.302491,-0.17713 -0.07438,-0.02869 -0.143295,-0.06711 -0.21682,-0.09755 -0.129684,-0.0537 -0.267508,-0.08539 -0.399102,-0.13354 -0.20492,-0.06713 -0.34891,-0.111158 -0.555225,-0.194557 C 10.85975,18.87734 10.487797,18.70683 10.240871,18.572165 10.053804,18.470146 9.8672289,18.366051 9.6905819,18.246897 9.4973669,18.116568 9.3189169,17.965587 9.1330849,17.824931 8.9661989,17.676327 8.7940089,17.533474 8.6324269,17.37912 8.4295969,17.185364 8.0764099,16.809736 7.8981549,16.574383 7.7516929,16.381007 7.6401019,16.162357 7.5092389,15.958639 Z" />
  </g>
  <g
     id="layer12"
     style="display:none"
     transform="translate(-1.9333174,-15.136389)">
    <path
       style="fill:#1a1a1a;stroke-width:0.264583"
       id="path13-6"
       d="m 11.270619,23.935287 c -0.131052,-0.02575 -0.09548,-0.01439 -0.264215,-0.0799 -0.386647,-0.150095 -0.341341,-0.132349 -0.739365,-0.364638 -0.3234606,-0.188774 -0.7547766,-0.457782 -1.0681236,-0.651055 -0.196306,-0.128298 -0.397734,-0.249079 -0.588915,-0.384893 -0.336362,-0.238948 -0.624306,-0.487296 -0.929915,-0.761059 -0.26146,-0.234215 -0.511282,-0.478017 -0.751814,-0.733356 -0.105004,-0.101025 -0.192194,-0.218405 -0.306044,-0.31014 -0.0675,-0.05438 -0.1433,-0.09974 -0.215644,-0.147259 -0.0712,-0.05636 -0.147057,-0.104385 -0.21464,-0.165254 -0.07532,-0.07074 -0.169308,-0.115914 -0.248025,-0.181596 -0.01528,-0.01235 -0.05942,-0.04402 -0.07183,-0.06589 -0.0036,-0.0063 -0.0018,-0.01439 -0.0027,-0.02158 -0.570526,1.134818 -1.163833,2.258467 -1.71158,3.404453 -0.0416,0.08704 0.120082,-0.151676 0.189075,-0.219098 0.121998,-0.11922 0.255155,-0.226459 0.382732,-0.339688 0.953832,-0.823455 1.910694,-1.645088 2.818666,-2.51963 0.28771,-0.277117 0.564938,-0.564927 0.849621,-0.845155 0.247331,-0.243461 0.497597,-0.483923 0.746395,-0.725885 0.564553,-0.544758 1.1500006,-1.06692 1.7393766,-1.584436 0,0 1.274454,-3.099599 1.274454,-3.099599 v 0 c -0.676669,0.807042 -1.346052,1.620868 -2.065084,2.391161 -0.2576056,0.2682 -0.5074916,0.544034 -0.7728166,0.8046 -0.473555,0.46506 -1.017227,0.94139 -1.540154,1.35306 -0.400411,0.31522 -0.802641,0.603699 -1.24349,0.858093 -0.139767,0.08065 -0.288033,0.14559 -0.432049,0.218385 -0.09316,0.03654 -0.183564,0.08109 -0.279482,0.109613 -0.05767,0.01715 -0.148792,-0.02571 -0.178532,0.02659 -2.16482,3.807145 -2.929305,2.800369 -1.710982,3.620319 0.07956,0.06003 0.149375,0.132258 0.233223,0.187053 0.09313,0.07291 0.188341,0.141407 0.302491,0.17713 0.07438,0.02869 0.143295,0.06711 0.21682,0.09755 0.129684,0.0537 0.267508,0.08539 0.399102,0.13354 0.20492,0.06713 0.34891,0.111158 0.555225,0.194557 0.268689,0.108613 0.640642,0.279123 0.887568,0.413788 0.187067,0.102019 0.373642,0.206114 0.550289,0.325268 0.193215,0.130329 0.371665,0.28131 0.557497,0.421966 0.166886,0.148604 0.339076,0.291457 0.500658,0.445811 0.20283,0.193756 0.556017,0.569384 0.734272,0.804737 0.146462,0.193376 0.258053,0.412026 0.388916,0.615744 z" />
  </g>
  <g
     id="layer11"
     style="display:none"
     transform="translate(-1.9333174,-15.136389)">
    <path
       style="fill:#1a1a1a;stroke-width:0.264583"
       id="path13-7"
       d="m 5.7184159,17.12631 c 0.02575,0.131052 0.01439,0.09548 0.07989,0.264215 0.150095,0.386647 0.13235,0.341341 0.364639,0.739365 0.188774,0.323461 0.457782,0.754777 0.651055,1.068124 0.128297,0.196306 0.249078,0.397734 0.384892,0.588915 0.238949,0.336362 0.487296,0.624306 0.76106,0.929915 0.234215,0.26146 0.478016,0.511282 0.733355,0.751814 0.101026,0.105004 0.218405,0.192194 0.310141,0.306044 0.05438,0.0675 0.09974,0.1433 0.147258,0.215644 0.05636,0.0712 0.104386,0.147057 0.165254,0.21464 0.07074,0.07532 0.115914,0.169308 0.181596,0.248025 0.01235,0.01528 0.04402,0.05942 0.06589,0.07183 0.0063,0.0036 0.01439,0.0018 0.02159,0.0027 -1.134817,0.570526 -2.258466,1.163833 -3.404453,1.71158 -0.08704,0.0416 0.151676,-0.120082 0.219099,-0.189075 0.11922,-0.121998 0.226458,-0.255155 0.339687,-0.382732 0.823456,-0.953832 1.645089,-1.910694 2.51963,-2.818666 0.277117,-0.28771 0.564927,-0.564938 0.8451551,-0.849621 0.243461,-0.247331 0.483923,-0.497597 0.725885,-0.746395 0.544758,-0.564553 1.06692,-1.150001 1.584436,-1.739377 0,0 3.099599,-1.274454 3.099599,-1.274454 v 0 c -0.807042,0.676669 -1.620868,1.346052 -2.391161,2.065084 -0.2682,0.257606 -0.544034,0.507492 -0.8046,0.772817 -0.46506,0.473555 -0.94139,1.017227 -1.35306,1.540154 -0.31522,0.400411 -0.603699,0.802641 -0.858093,1.24349 -0.08065,0.139767 -0.1455901,0.288033 -0.2183841,0.432049 -0.03654,0.09316 -0.08109,0.183564 -0.109614,0.279482 -0.01715,0.05767 0.02571,0.148792 -0.02659,0.178532 -3.807144,2.16482 -2.800368,2.929305 -3.620318,1.710982 -0.06003,-0.07956 -0.132259,-0.149375 -0.187053,-0.233223 -0.07291,-0.09313 -0.141408,-0.188341 -0.177131,-0.302491 -0.02869,-0.07438 -0.06711,-0.143295 -0.09755,-0.21682 -0.0537,-0.129684 -0.08539,-0.267508 -0.133539,-0.399102 -0.06713,-0.20492 -0.111159,-0.34891 -0.194558,-0.555225 C 5.2338099,22.485841 5.0633009,22.113888 4.9286359,21.866962 4.8266159,21.679895 4.7225219,21.49332 4.6033679,21.316673 4.4730389,21.123458 4.3220569,20.945008 4.1814009,20.759176 4.0327979,20.59229 3.8899449,20.4201 3.7355909,20.258518 3.5418349,20.055688 3.1662069,19.702501 2.9308539,19.524246 2.7374769,19.377784 2.5188273,19.266193 2.3151092,19.13533 Z" />
  </g>
  <g
     id="layer10"
     style="display:none"
     transform="translate(-1.9333174,-15.136389)">
    <path
       style="fill:#1a1a1a;stroke-width:0.264583"
       id="path13"
       d="m 5.7563315,24.227071 c 0.025749,-0.131052 0.014393,-0.09548 0.079894,-0.264215 0.1500952,-0.386647 0.1323498,-0.341341 0.3646389,-0.739365 0.1887739,-0.323461 0.4577821,-0.754777 0.6510549,-1.068124 0.1282975,-0.196306 0.2490785,-0.397734 0.3848923,-0.588915 0.2389486,-0.336362 0.4872964,-0.624306 0.7610599,-0.929915 0.2342148,-0.26146 0.4780161,-0.511282 0.7333552,-0.751814 0.1010256,-0.105004 0.2184053,-0.192194 0.3101408,-0.306044 0.054384,-0.0675 0.099739,-0.1433 0.1472581,-0.215644 0.056364,-0.0712 0.1043858,-0.147057 0.165254,-0.21464 0.070745,-0.07532 0.1159145,-0.169308 0.1815963,-0.248025 0.012353,-0.01528 0.044024,-0.05942 0.065891,-0.07183 0.00631,-0.0036 0.014391,-0.0018 0.021585,-0.0027 -1.1348177,-0.570526 -2.2584666,-1.163833 -3.4044529,-1.71158 -0.087037,-0.0416 0.1516758,0.120082 0.2190985,0.189075 0.1192197,0.121998 0.2264582,0.255155 0.3396874,0.382732 0.8234553,0.953832 1.6450882,1.910694 2.51963,2.818666 0.2771172,0.28771 0.5649269,0.564938 0.8451551,0.849621 0.243461,0.247331 0.483923,0.497597 0.725885,0.746395 0.544758,0.564553 1.06692,1.150001 1.584436,1.739377 0,0 3.099599,1.274454 3.099599,1.274454 v 0 c -0.807042,-0.676669 -1.620868,-1.346052 -2.391161,-2.065084 -0.2682,-0.257606 -0.544034,-0.507492 -0.8046,-0.772817 -0.46506,-0.473555 -0.94139,-1.017227 -1.35306,-1.540154 -0.31522,-0.400411 -0.603699,-0.802641 -0.858093,-1.24349 -0.08065,-0.139767 -0.14559,-0.288033 -0.2183845,-0.432049 -0.036538,-0.09316 -0.081089,-0.183564 -0.1096137,-0.279482 -0.01715,-0.05767 0.025712,-0.148792 -0.026591,-0.178532 -3.8071446,-2.16482 -2.8003685,-2.929305 -3.6203184,-1.710982 -0.060028,0.07956 -0.1322588,0.149375 -0.187053,0.233223 -0.072908,0.09313 -0.1414073,0.188341 -0.1771306,0.302491 -0.028688,0.07438 -0.067109,0.143295 -0.097554,0.21682 -0.053697,0.129684 -0.085393,0.267508 -0.1335394,0.399102 -0.067133,0.20492 -0.1111584,0.34891 -0.1945577,0.555225 -0.108613,0.268689 -0.2791224,0.640642 -0.4137874,0.887568 -0.1020194,0.187067 -0.2061139,0.373642 -0.3252679,0.550289 -0.130329,0.193215 -0.2813108,0.371665 -0.4219665,0.557497 -0.1486035,0.166886 -0.2914565,0.339076 -0.4458107,0.500658 -0.193756,0.20283 -0.5693839,0.556017 -0.8047368,0.734272 -0.1933763,0.146462 -0.4120264,0.258053 -0.6157445,0.388916 z" />
  </g>
  <g
     id="g19"
     transform="matrix(-1,0,0,1,16.814652,-15.136389)"
     style="display:none">
    <path
       style="fill:#1a1a1a;stroke-width:0.264583"
       id="path19"
       d="m 5.1920724,17.64404 c 0.3454008,-0.100248 0.7112193,-0.106632 1.0679882,-0.122057 0.2879815,-0.0038 0.7085042,-0.01357 0.9781241,0.0053 0.5310534,0.03719 1.0426216,0.123516 1.5658214,0.219618 0.8308263,0.152609 0.8612909,0.172382 1.6928889,0.373327 1.439541,0.359328 2.85896,0.806127 4.232454,1.36886 0.173146,0.07094 0.343715,0.148014 0.515573,0.222021 0.13646,0.07006 0.274604,0.136932 0.40938,0.21018 0.110685,0.06016 0.436205,0.252268 0.326753,0.189897 -0.970494,-0.553034 -1.936084,-1.114712 -2.909891,-1.661893 -0.07021,-0.03945 0.134742,0.08859 0.198191,0.138189 0.158895,0.124219 0.168873,0.150133 0.295696,0.298245 0.285461,0.393382 0.382207,0.886247 0.365952,1.366408 -0.004,0.118004 -0.02411,0.23491 -0.03616,0.352365 -0.06189,0.461024 -0.204329,0.903656 -0.487362,1.278442 -0.171389,0.226949 -0.244445,0.267853 -0.458883,0.447616 -0.548925,0.396516 -1.212766,0.53138 -1.866196,0.646816 -0.32994,0.05704 -0.6644,0.07253 -0.997519,0.09831 -0.3098283,0.02397 -0.3975313,0.0401 -0.7124874,0.05153 -0.1182446,0.0043 -0.2366272,0.0029 -0.3549406,0.0044 -0.4514271,-0.0097 -0.9028229,0.0227 -1.3542045,-7.41e-4 C 7.5044262,23.122644 6.8399342,23.06163 6.7002212,23.049141 5.7193917,22.965553 4.7413478,22.829633 3.7772347,22.62939 3.5960692,22.591763 3.4162071,22.548113 3.2356933,22.507474 2.9818105,22.440536 2.6438042,22.35842 2.3914501,22.267469 2.2902234,22.230986 2.1928411,22.184568 2.09443,22.141058 1.9647473,22.083723 1.8016648,22.009721 1.6784198,21.933417 c -0.045153,-0.02796 -0.08617,-0.0621 -0.1292554,-0.09315 0,0 3.0054998,2.424193 3.0054998,2.424193 v 0 c 0.1541542,0.05571 0.3088994,0.111055 0.4676256,0.152664 0.3231028,0.0847 0.6541347,0.133257 0.9834615,0.185956 0.5584727,0.09157 1.1157191,0.19451 1.6757267,0.276297 0.6004755,0.0877 1.2048302,0.148553 1.8047451,0.240574 0.8271879,0.105482 1.6648399,0.235926 2.4998429,0.1489 0.698365,-0.05342 1.403769,-0.04679 2.090575,-0.204332 0.187777,-0.04129 0.524054,-0.112394 0.706626,-0.164298 0.464085,-0.131937 0.90315,-0.32951 1.276029,-0.640473 0.08829,-0.08418 0.182999,-0.16211 0.264873,-0.252546 0.343932,-0.3799 0.583212,-0.851751 0.715586,-1.345062 0.03272,-0.121944 0.04887,-0.247742 0.0733,-0.371612 0.02286,-0.183703 0.07549,-0.576538 0.08358,-0.761649 0.005,-0.115298 4.5e-4,-0.230894 -0.0045,-0.346196 -0.0071,-0.166141 -0.02572,-0.407695 -0.07028,-0.572729 -0.02098,-0.07769 -0.05701,-0.15051 -0.08552,-0.225765 C 16.90331,20.180385 16.744782,19.920842 16.52998,19.792475 15.178475,18.984804 13.9441,18.103641 12.496999,17.555671 12.351876,17.507345 12.20765,17.456235 12.061629,17.410693 11.846322,17.343542 11.018393,17.107055 10.854477,17.059996 9.4266879,16.650093 10.590629,16.986665 9.0420292,16.533669 8.706704,16.43558 8.3712046,16.338086 8.0357923,16.240294 7.1693113,16.025794 7.1351515,16.003956 6.2727503,15.841846 5.9883722,15.78839 4.8656861,15.603363 4.5855143,15.554742 4.3179515,15.508309 4.0522874,15.450444 3.7835855,15.411136 3.6219235,15.387487 3.4582068,15.381065 3.2955174,15.36603 2.8362121,15.346371 2.3644295,15.334656 1.9132682,15.437086 Z" />
  </g>
  <g
     id="layer19"
     style="display:none"
     transform="translate(-1.9333174,-15.136389)">
    <path
       style="fill:#1a1a1a;stroke-width:0.264583"
       id="path18"
       d="m 5.1920724,17.64404 c 0.3454008,-0.100248 0.7112193,-0.106632 1.0679882,-0.122057 0.2879815,-0.0038 0.7085042,-0.01357 0.9781241,0.0053 0.5310534,0.03719 1.0426216,0.123516 1.5658214,0.219618 0.8308263,0.152609 0.8612909,0.172382 1.6928889,0.373327 1.439541,0.359328 2.85896,0.806127 4.232454,1.36886 0.173146,0.07094 0.343715,0.148014 0.515573,0.222021 0.13646,0.07006 0.274604,0.136932 0.40938,0.21018 0.110685,0.06016 0.436205,0.252268 0.326753,0.189897 -0.970494,-0.553034 -1.936084,-1.114712 -2.909891,-1.661893 -0.07021,-0.03945 0.134742,0.08859 0.198191,0.138189 0.158895,0.124219 0.168873,0.150133 0.295696,0.298245 0.285461,0.393382 0.382207,0.886247 0.365952,1.366408 -0.004,0.118004 -0.02411,0.23491 -0.03616,0.352365 -0.06189,0.461024 -0.204329,0.903656 -0.487362,1.278442 -0.171389,0.226949 -0.244445,0.267853 -0.458883,0.447616 -0.548925,0.396516 -1.212766,0.53138 -1.866196,0.646816 -0.32994,0.05704 -0.6644,0.07253 -0.997519,0.09831 -0.3098283,0.02397 -0.3975313,0.0401 -0.7124874,0.05153 -0.1182446,0.0043 -0.2366272,0.0029 -0.3549406,0.0044 -0.4514271,-0.0097 -0.9028229,0.0227 -1.3542045,-7.41e-4 C 7.5044262,23.122644 6.8399342,23.06163 6.7002212,23.049141 5.7193917,22.965553 4.7413478,22.829633 3.7772347,22.62939 3.5960692,22.591763 3.4162071,22.548113 3.2356933,22.507474 2.9818105,22.440536 2.6438042,22.35842 2.3914501,22.267469 2.2902234,22.230986 2.1928411,22.184568 2.09443,22.141058 1.9647473,22.083723 1.8016648,22.009721 1.6784198,21.933417 c -0.045153,-0.02796 -0.08617,-0.0621 -0.1292554,-0.09315 0,0 3.0054998,2.424193 3.0054998,2.424193 v 0 c 0.1541542,0.05571 0.3088994,0.111055 0.4676256,0.152664 0.3231028,0.0847 0.6541347,0.133257 0.9834615,0.185956 0.5584727,0.09157 1.1157191,0.19451 1.6757267,0.276297 0.6004755,0.0877 1.2048302,0.148553 1.8047451,0.240574 0.8271879,0.105482 1.6648399,0.235926 2.4998429,0.1489 0.698365,-0.05342 1.403769,-0.04679 2.090575,-0.204332 0.187777,-0.04129 0.524054,-0.112394 0.706626,-0.164298 0.464085,-0.131937 0.90315,-0.32951 1.276029,-0.640473 0.08829,-0.08418 0.182999,-0.16211 0.264873,-0.252546 0.343932,-0.3799 0.583212,-0.851751 0.715586,-1.345062 0.03272,-0.121944 0.04887,-0.247742 0.0733,-0.371612 0.02286,-0.183703 0.07549,-0.576538 0.08358,-0.761649 0.005,-0.115298 4.5e-4,-0.230894 -0.0045,-0.346196 -0.0071,-0.166141 -0.02572,-0.407695 -0.07028,-0.572729 -0.02098,-0.07769 -0.05701,-0.15051 -0.08552,-0.225765 C 16.90331,20.180385 16.744782,19.920842 16.52998,19.792475 15.178475,18.984804 13.9441,18.103641 12.496999,17.555671 12.351876,17.507345 12.20765,17.456235 12.061629,17.410693 11.846322,17.343542 11.018393,17.107055 10.854477,17.059996 9.4266879,16.650093 10.590629,16.986665 9.0420292,16.533669 8.706704,16.43558 8.3712046,16.338086 8.0357923,16.240294 7.1693113,16.025794 7.1351515,16.003956 6.2727503,15.841846 5.9883722,15.78839 4.8656861,15.603363 4.5855143,15.554742 4.3179515,15.508309 4.0522874,15.450444 3.7835855,15.411136 3.6219235,15.387487 3.4582068,15.381065 3.2955174,15.36603 2.8362121,15.346371 2.3644295,15.334656 1.9132682,15.437086 Z" />
  </g>
  <g
     id="layer15"
     style="display:none"
     transform="translate(-1.9333174,-15.136389)">
    <path
       style="fill:#1a1a1a;stroke-width:0.264583"
       id="path15"
       d="m 10.178585,13.622455 c -0.452131,0.08578 -0.9191906,0.06997 -1.3775384,0.06271 -0.353509,-0.0043 -0.7112376,-0.05212 -1.0633461,0.0022 -0.062391,0.0096 -0.1236155,0.02568 -0.1854232,0.03853 -0.1514136,0.0402 -0.2924995,0.109948 -0.441139,0.157896 -0.086879,0.02802 -0.1765797,0.04653 -0.2640277,0.07273 -0.2584413,0.07742 -0.5109496,0.171165 -0.762499,0.268125 -0.076686,0.03468 -0.1533726,0.06936 -0.2300589,0.104035 -0.073003,0.03491 -0.1452991,0.07133 -0.2190078,0.104724 -0.065766,0.02979 -0.1338048,0.05443 -0.199314,0.08479 -0.1767854,0.08191 -0.3454623,0.181621 -0.5171221,0.273505 -0.3034622,0.163048 -0.6078471,0.325226 -0.8946311,0.51636 -0.2143724,0.164011 -0.4461071,0.31023 -0.6406102,0.498922 -0.1584781,0.153743 -0.177783,0.194643 -0.316527,0.377469 -0.292659,0.380537 -0.5514713,0.781807 -0.7390615,1.224283 -0.1443272,0.391185 -0.1475202,0.796234 -0.110742,1.206126 0.019682,0.08807 0.034828,0.177269 0.059047,0.264196 0.058724,0.210775 0.1447118,0.424089 0.2207252,0.628473 0.1086077,0.292023 0.2268383,0.576285 0.3531889,0.861059 0.1921574,0.426972 0.4462933,0.821807 0.7241258,1.197388 0.1602138,0.238676 0.3625153,0.437228 0.5748494,0.62832 0.1036841,0.0962 0.2156966,0.184566 0.3384016,0.25553 3.4373034,1.987909 2.2262965,1.451965 3.5645738,2.038019 0.046786,0.02524 0.092081,0.05346 0.1403577,0.07571 0.1100675,0.05073 0.224884,0.09046 0.3371538,0.136109 0.1150078,0.04677 0.2278705,0.09909 0.3447188,0.141046 0.05595,0.02009 0.1138528,0.03425 0.1707795,0.05138 0.056534,0.0172 0.1122198,0.03748 0.1696035,0.05158 0.1332357,0.03275 0.3316062,0.05969 0.4616365,0.08125 0.321755,0.05335 0.6429445,0.109897 0.9637685,0.168541 0.543625,0.112948 1.098849,0.118394 1.651105,0.0993 0.29213,0.0097 0.580891,-0.03128 0.871471,-0.05032 0.09298,-0.0013 0.188422,-0.0021 0.276492,-0.03666 0.02463,-0.0097 0.09501,-0.05411 0.118876,-0.06875 0.0655,-0.01735 0.116854,-0.06167 0.173977,-0.09487 0.07718,-0.04486 0.100138,-0.05743 0.165551,-0.123348 0.02034,-0.04369 0.04533,-0.0855 0.06104,-0.131061 0.02647,-0.07676 0.0476,-0.225756 0.06,-0.303468 0.02802,-0.175675 0.05045,-0.349216 0.06544,-0.526525 0.0041,-0.06968 0.01054,-0.139265 0.01233,-0.209044 0.0044,-0.171942 -0.0035,-0.344039 3.18e-4,-0.515993 0.0058,-0.258952 0.02527,-0.517827 0.041,-0.776302 0.02306,-0.362695 0.07746,-0.722263 0.115533,-1.083536 0.0054,-0.04792 0.01232,-0.09569 0.01608,-0.143768 0.004,-0.05178 0.0032,-0.10386 0.0073,-0.155633 0.01392,-0.176137 0.04258,-0.351685 0.06149,-0.527394 0.02314,-0.17142 0.0312,-0.344195 0.04092,-0.516729 0.330634,-1.315402 0.04082,-0.104439 -3.52786,-1.777922 -0.03298,-0.01546 0.03606,0.0639 0.04701,0.09864 0.01829,0.058 0.02725,0.11855 0.04021,0.177972 0.08629,0.395649 0.05456,0.22866 0.113187,0.654416 0.12431,0.941792 0.191475,1.888842 0.254721,2.836221 0.06559,0.849947 0.0349,1.702801 0.01092,2.553709 -0.01024,0.369745 0.01879,0.738154 0.0457,1.106459 0.02142,0.264366 0.05066,0.527857 0.08053,0.791371 0.0071,0.06177 0.01361,0.123593 0.01983,0.18545 0,0 3.529292,1.751536 3.529292,1.751536 v 0 c -0.0084,-0.076 -0.01816,-0.151823 -0.03675,-0.226176 -0.06376,-0.262536 -0.148728,-0.522074 -0.158942,-0.794362 -0.04711,-0.383714 -0.07622,-0.769858 -0.146978,-1.150609 -0.16062,-0.875734 -0.262861,-1.763314 -0.244834,-2.655306 -0.01779,-0.918821 -0.07053,-1.836388 -0.07886,-2.755462 0.002,-0.108018 -5.03e-4,-0.216218 0.0061,-0.324056 0.111332,-1.830703 1.526771,0.155079 -3.464512,-2.310031 -0.01569,-0.0077 0.0068,0.03432 0.01022,0.05149 0.0074,0.173059 0.01029,0.346244 0.0123,0.519442 -0.0031,0.178527 -0.0058,0.358204 -0.02369,0.536005 -0.0052,0.05197 -0.01569,0.10335 -0.02003,0.155395 -0.004,0.04813 -0.0033,0.09654 -0.005,0.144807 -0.01028,0.164019 -0.02698,0.328389 -0.03097,0.49272 -0.0053,0.216469 0.0052,0.433478 -0.01021,0.649791 -0.0054,0.483915 -0.03038,0.965766 -0.09612,1.4457 -0.02379,0.158589 -0.04718,0.315776 -0.08809,0.471075 -0.01743,0.06616 -0.02955,0.121111 -0.06638,0.177631 -0.0014,0.0022 -0.0043,-0.0028 -0.0065,-0.0042 -0.08689,0.04107 -0.170514,0.08613 -0.263423,0.11349 -0.102338,0.01798 -0.209672,0.0048 -0.3112003,0.03873 -0.2440519,0.04816 -0.489885,0.08579 -0.7382288,0.103854 -0.1695701,0.0074 -0.2780286,0.01508 -0.4491148,0.01045 C 8.4192153,23.087739 8.0610562,23.029474 7.7026792,22.979568 7.1315663,22.882596 6.5655609,22.754986 6.0266994,22.537591 5.6931828,22.399491 5.360125,22.260771 5.04632,22.080789 c -1.1883892,-0.676692 -0.7672508,-0.43733 3.0733385,1.780974 0.029447,0.01701 -0.057251,-0.03672 -0.086235,-0.05451 -0.1662766,-0.102026 -0.011684,-0.0056 -0.1891634,-0.106835 -0.035684,-0.02035 -0.070388,-0.04238 -0.1055825,-0.06357 C 7.5033633,23.466108 7.2698851,23.283289 7.0830795,23.059386 7.0721178,23.047247 6.8088138,22.755807 6.8063182,22.752736 6.7558691,22.690657 6.7115773,22.623817 6.6637792,22.559674 6.5055433,22.34733 6.3470688,22.134951 6.2247844,21.89877 5.9540247,21.392677 5.709184,20.868942 5.6136853,20.297875 5.5917113,20.138542 5.5777383,20.082074 5.5795233,19.92239 c 0.00251,-0.223996 0.03874,-0.447641 0.084536,-0.666216 0.016155,-0.05588 0.029728,-0.112576 0.048466,-0.167646 0.1209633,-0.355509 0.3277955,-0.677317 0.564728,-0.96581 0.2892555,-0.281285 0.601967,-0.539461 0.9515142,-0.743342 0.3010574,-0.16412 0.6025091,-0.327233 0.8969335,-0.503113 0.3451831,-0.210238 0.7002335,-0.407872 1.0748528,-0.560992 0.4749504,-0.189466 0.9641012,-0.347273 1.4769422,-0.389738 0.378276,-0.03373 0.758337,-0.02881 1.137387,-0.05068 0.516952,-0.0086 1.037166,-0.0099 1.550155,0.06271 z" />
  </g>
  <g
     id="layer9"
     style="display:none"
     transform="translate(-1.9333174,-15.136389)">
    <path
       style="fill:#1a1a1a;stroke-width:0.264583"
       id="path12"
       d="m 1.7682064,16.645439 c 0.149371,0.141815 0.2976221,0.284818 0.4481134,0.425443 0.7864049,0.734849 0.7325537,0.658106 1.52191,1.447161 0.4853451,0.485159 0.8863103,0.906457 1.3408557,1.41333 0.1573657,0.175482 0.3091132,0.355922 0.4636696,0.533883 0.3449338,0.428854 0.7139048,0.84782 0.9839722,1.330414 0.00423,0.04522 0.08425,0.0961 0.095465,0.139219 0.00337,0.01295 -0.00804,0.03327 0.00353,0.04 1.1425488,0.66455 2.2960134,1.310154 3.4440197,1.96523 0.04344,-0.05722 0.306222,-0.403797 0.319696,-0.419188 0.219122,-0.25029 0.545981,-0.552065 0.777161,-0.774881 0.73411,-0.707552 0.406885,-0.388152 1.191658,-1.171127 0.879571,-0.824783 1.867481,-1.522269 2.910715,-2.123466 0.337531,-0.194513 0.643303,-0.347056 0.986372,-0.523146 0.248807,-0.112526 0.320818,-0.157885 0.561275,-0.22811 0.04481,-0.01309 0.09168,-0.01779 0.13703,-0.02883 0.02895,-0.007 0.111057,-0.0097 0.08572,-0.02538 -3.405928,-2.10933 -2.718199,-3.159298 -3.467147,-1.93983 -0.03198,0.04066 -0.06396,0.08132 -0.09593,0.121982 -0.0488,0.07595 -0.09113,0.156459 -0.146392,0.227841 -0.05621,0.07261 -0.508831,0.564285 -0.538192,0.598339 -0.363797,0.421929 -0.453015,0.558232 -0.80922,1.030256 -0.477755,0.626476 -0.685979,0.926197 -1.230493,1.522573 -0.242633,0.265741 -0.499892,0.517812 -0.7547576,0.771845 -0.312261,0.31124 -1.2068861,1.170496 -1.5349871,1.473871 -0.2426399,0.224355 -0.4913739,0.442027 -0.7370609,0.66304 -0.2309985,0.200707 -0.4612203,0.402311 -0.6929956,0.60212 -0.4844068,0.417599 -0.7353787,0.639677 -1.2366969,1.018935 -0.4219874,0.319243 -0.8629798,0.605386 -1.3135102,0.881667 -0.090278,0.04945 -0.1805564,0.0989 -0.2708346,0.148357 0,0 3.0578975,1.900516 3.0578975,1.900516 v 0 c 0.051638,-0.0756 0.1032756,-0.151204 0.1549133,-0.226806 0.1759479,-0.244417 0.315388,-0.443418 0.5065662,-0.683083 0.6336326,-0.794336 1.3473903,-1.51897 2.0296653,-2.270463 0.7685616,-0.838331 0.5574506,-0.624292 1.3843266,-1.457487 0.395794,-0.398819 1.132909,-1.135374 1.547764,-1.511099 0.697519,-0.631729 0.866388,-0.73816 1.592675,-1.293504 0.457906,-0.324251 0.695128,-0.498928 1.145366,-0.795566 0.140648,-0.09267 0.580768,-0.372956 0.750254,-0.462299 0.145447,-0.07667 0.304532,-0.125638 0.445961,-0.210755 1.350625,-0.477063 0.110043,-0.0051 -3.206476,-2.137668 -0.01814,-0.01167 0.05576,-0.01667 0.06464,0.003 0.01371,0.03034 -0.0075,0.06683 -0.01898,0.09807 -0.02135,0.05795 -0.04609,0.115325 -0.07892,0.167637 -0.05377,0.08567 -0.119832,0.162993 -0.179748,0.244489 -0.270269,0.318459 -0.343355,0.413322 -0.652664,0.734642 -0.813148,0.844727 -1.704676,1.611543 -2.668209,2.280533 -0.4743336,0.303037 -1.0233296,0.665819 -1.520922,0.941286 -0.3802798,0.210523 -0.7281859,0.380779 -1.1410386,0.509894 -0.1234334,0.0386 -0.2498931,0.07323 -0.3787661,0.08408 -0.052814,0.0044 -0.1027253,-0.02615 -0.154088,-0.03922 1.110865,0.656019 2.2217301,1.312037 3.3325947,1.968056 -0.0084,-0.0068 -0.01976,-0.0111 -0.02524,-0.02044 -0.02218,-0.03775 -0.02213,-0.08516 -0.04023,-0.125026 -0.03482,-0.07666 -0.07216,-0.112747 -0.126307,-0.179946 C 9.8539474,23.112547 9.6825674,22.932612 9.5027754,22.760879 9.0763494,22.353568 8.6287603,21.969415 8.1965098,21.568412 7.4969313,20.91342 6.7975397,20.257789 6.1665222,19.534638 5.8309189,19.150034 5.5772308,18.846777 5.3450947,18.406787 5.3060797,18.332838 5.2892274,18.249176 5.2612937,18.170371 Z" />
  </g>
  <g
     id="layer14"
     style="display:none"
     transform="translate(-1.9333174,-15.136389)">
    <path
       style="fill:#1a1a1a;stroke-width:0.264583"
       id="path14"
       d="M 6.2669763,24.987378 C 6.255414,24.96225 6.2415737,24.938053 6.23229,24.911999 6.2161028,24.866575 6.2046672,24.819595 6.1907327,24.77343 6.0767999,24.395974 6.1399874,24.62053 6.0186535,24.148047 5.8133926,23.348747 5.936313,23.817833 5.6813817,22.867775 5.4452617,21.74761 5.2874997,20.610882 5.23178,19.467016 5.205302,18.923448 5.216625,18.666365 5.22427,18.137267 c 0.015592,-0.373575 0.064128,-0.743985 0.1324695,-1.111134 0.028175,-0.151364 0.059151,-0.301067 0.081736,-0.453384 0.00536,-0.02748 0.00933,-0.05527 0.016089,-0.08244 0.00414,-0.01664 0.00634,-0.03493 0.016547,-0.04871 0.00339,-0.0046 -0.019982,0.0031 -0.021452,0.0086 -0.018116,0.06766 -0.04993,0.137099 -0.035944,0.205735 0.00843,0.04137 0.076409,0.03657 0.1166384,0.04938 0.083778,0.02668 0.1697506,0.04591 0.2546257,0.06887 0.174978,0.02261 0.3517323,0.03421 0.5249333,0.06783 0.7089386,0.137577 1.2906381,0.316131 1.9885742,0.530824 1.0288421,0.316482 2.0435869,0.672904 3.0590339,1.029242 0.579045,0.197503 1.15302,0.412139 1.741678,0.580382 0.340561,0.09733 0.68729,0.175608 1.030941,0.261206 0.260477,0.07414 0.528141,0.11933 0.790201,0.186596 0.08625,0.02214 0.171395,0.04838 0.257096,0.07256 0.11856,0.04446 0.244698,0.06567 0.364883,0.104152 0.03512,0.01124 0.07022,0.02343 0.103031,0.04026 0.02703,0.01387 0.101575,0.06661 0.07536,0.05126 -1.106327,-0.647977 -2.21058,-1.299487 -3.315871,-1.949231 0.03291,-0.06304 0.0818,-0.120053 0.09872,-0.189122 0.0093,-0.03803 -0.04708,0.06288 -0.07461,0.09071 -0.05025,0.05081 -0.103725,0.09843 -0.158204,0.144671 -0.06724,0.05707 -0.138054,0.109788 -0.206738,0.16511 -0.380339,0.306349 -0.116871,0.102113 -0.541139,0.422286 -0.123317,0.110226 -0.238594,0.230168 -0.369951,0.330677 -0.185242,0.141743 -0.780532,0.507527 -0.975614,0.624117 -0.164792,0.09849 -0.3328967,0.191333 -0.4983861,0.288643 -1.6509939,0.970805 0.6693931,-0.382517 -0.9594382,0.565814 -0.1545907,0.08161 -0.3086071,0.164326 -0.4637717,0.244844 -0.1447729,0.07512 -0.2899384,0.149518 -0.4360161,0.222072 -0.1975885,0.09814 -0.5910776,0.280676 -0.7886817,0.387758 -1.1723669,0.635307 0.4141499,-0.183043 -0.789769,0.430731 -0.5647391,0.284059 -1.1626766,0.491437 -1.7458307,0.732486 -0.1313833,0.05274 -0.2624891,0.109578 -0.3869475,0.177492 -0.031935,0.01743 -0.061632,0.03876 -0.09354,0.05623 -0.1046067,0.05067 -0.053591,0.02364 -0.153117,0.08094 -0.1346674,0.06832 -0.2644439,0.145058 -0.3948337,0.221027 -0.046287,0.03126 -0.095396,0.05951 -0.1508911,0.07035 -0.012351,0.0024 -0.025551,-5.6e-5 -0.037578,0.0037 -0.040034,0.01234 -0.059812,0.03414 -0.09222,0.06024 -0.7288869,1.420273 -0.2619378,0.312185 3.3243961,2.268517 0.064772,0.03533 0.1461709,-0.02217 0.2198812,-0.02545 0.1422508,-0.0063 0.2847771,-0.0048 0.4271605,-0.0033 0.9162809,0.0095 0.7097948,0.01421 1.7715846,0.103136 0.4174903,0.06125 0.836173,0.114851 1.2524704,0.183738 0.825115,0.136536 1.614899,0.301729 2.432321,0.473428 0.84031,0.176507 1.677699,0.364999 2.514726,0.556286 0.775609,0.160862 1.547127,0.341106 2.305612,0.569915 l -2.971152,-2.256526 v 0 C 13.849046,24.692007 13.237636,24.608807 12.623102,24.55363 11.961814,24.502871 11.299425,24.461172 10.639293,24.396498 9.4580301,24.280768 8.2809582,24.118483 7.1213154,23.860836 5.5984274,23.487873 6.0028531,23.605893 4.6144097,23.199786 4.3776635,23.13054 4.1406569,23.061925 3.9059783,22.985966 3.7649568,22.940321 3.363636,22.753957 3.4876811,22.835094 c 3.1968781,2.09108 3.8616942,0.906285 3.0462699,2.170057 -0.0027,0.0032 -0.012269,0.01037 -0.00809,0.0097 0.039891,-0.0059 0.1352217,-0.09164 0.1718805,-0.116849 0.016515,-0.01136 0.033712,-0.02169 0.050567,-0.03254 0.1235173,-0.0786 0.2449909,-0.160354 0.3703032,-0.236146 0.1776523,-0.11365 0.3372199,-0.253854 0.509811,-0.374975 0.4598157,-0.33504 0.924116,-0.665232 1.4281835,-0.932228 1.4631858,-0.789952 -0.7276197,0.382949 0.8220374,-0.41242 0.2699774,-0.138567 0.4726544,-0.275398 0.7286184,-0.438002 0.524309,-0.333075 0.280938,-0.17711 0.820579,-0.526904 0.341655,-0.210551 0.598698,-0.367455 0.938066,-0.582681 0.428974,-0.272053 0.532085,-0.353324 0.980853,-0.605423 0.17389,-0.09768 0.347451,-0.196871 0.528482,-0.280584 0.180121,-0.08329 0.368887,-0.146446 0.55333,-0.219669 0.540285,-0.276989 0.171929,-0.09059 0.674689,-0.339512 0.08543,-0.0423 0.169232,-0.08799 0.255953,-0.127573 0.0766,-0.03497 0.155644,-0.06433 0.233696,-0.09594 0.06937,-0.02809 0.152484,-0.03357 0.20855,-0.08314 0.09311,-0.08232 0.14883,-0.199086 0.223244,-0.298628 -1.121444,-0.671543 -2.237606,-1.351986 -3.364334,-2.014626 -0.0202,-0.01188 -0.04689,-0.0021 -0.07012,-0.0052 -0.151045,-0.02038 -0.293967,-0.07895 -0.444142,-0.104095 -0.292923,-0.0604 -0.590456,-0.08351 -0.886771,-0.121434 -0.294745,-0.04718 -0.58147,-0.104298 -0.874493,-0.160236 C 9.9549383,16.824021 9.5223874,16.755224 9.0956203,16.656984 8.5153465,16.526075 8.1499862,16.449989 7.557967,16.285667 6.0147284,15.857325 4.4978108,15.321884 3.0511205,14.632266 2.9028022,14.566703 2.757624,14.493519 2.6061658,14.435578 c -0.092618,-0.03543 -0.1879275,-0.09924 -0.285725,-0.08284 -0.3194115,0.05357 -0.3129614,0.270356 -0.2882074,0.49645 0.077781,0.454196 0.2142754,0.896412 0.3126518,1.346386 0.040908,0.187112 0.077745,0.375092 0.1166168,0.562638 0.080767,0.47297 0.1697471,0.976174 0.2372125,1.449959 0.1562354,1.097184 0.2696443,2.202977 0.2664725,3.312406 -0.017542,0.205978 -0.033538,0.412094 -0.05263,0.617934 -0.019875,0.214298 -0.046489,0.509069 -0.091651,0.729546 -0.013488,0.06585 -0.037142,0.129222 -0.053672,0.194374 -0.046422,0.182979 0.00198,0.03648 -0.046289,0.173348 z" />
  </g>
  <g
     id="layer23"
     style="display:none"
     transform="translate(-1.9333174,-15.136389)">
    <path
       style="fill:#1a1a1a;stroke-width:0.264583"
       id="path21"
       d="m 6.3163595,17.104822 c 0.097749,0.0062 0.1957887,0.0088 0.293248,0.01853 0.4301178,0.04297 0.8026072,0.106025 1.2371874,0.167281 0.3324543,0.04686 0.6650929,0.09241 0.9977808,0.137582 0.4471977,0.06072 0.895931,0.110738 1.3418723,0.180081 0.519009,0.0807 1.034958,0.179983 1.552436,0.269974 1.912821,0.392789 3.83723,0.781547 5.689994,1.409074 1.430279,0.733331 -1.120861,-0.570747 -3.004245,-1.710553 -0.03529,-0.02136 0.09738,-0.114687 0.08364,-0.151524 -0.0056,-0.01501 -0.02528,0.01968 -0.03808,0.02931 -0.02008,0.0151 -0.04037,0.02993 -0.06056,0.04489 -0.09634,0.103047 -0.190021,0.210914 -0.24258,0.344479 -0.03283,0.08344 -0.05375,0.171095 -0.07884,0.257176 -0.03194,0.109581 -0.142011,0.513113 -0.171009,0.61895 -0.08277,0.3334 -0.139634,0.672862 -0.188133,1.012743 -0.01577,0.110508 -0.03355,0.220888 -0.04291,0.332123 -0.0042,0.05031 -0.0293,0.701015 -0.03118,0.748768 -0.03411,0.673954 -0.04229,1.348707 -0.05537,2.023331 -0.003,0.09438 -0.0085,0.18872 -0.0091,0.28315 -6.35e-4,0.100412 0.0054,0.20078 0.0054,0.301194 -4.9e-5,0.334301 -0.01728,0.669925 -0.03175,1.003883 -0.0342,0.413566 -0.0687,0.826734 -0.13569,1.236417 -0.06236,0.306652 -0.112139,0.616878 -0.197847,0.918185 -0.0093,0.01865 -0.0111,0.04376 -0.028,0.056 -0.0085,0.0061 -0.01752,-0.01156 -0.02689,-0.01624 -0.02964,-0.01479 -0.05699,-0.03965 -0.09003,-0.04212 -0.109972,-0.0082 -0.220442,0.01413 -0.330666,0.01066 -0.495082,-0.01564 -0.77517,-0.06514 -1.282139,-0.129505 -0.243871,-0.04306 -0.488164,-0.08379 -0.73161,-0.129185 -0.224508,-0.04186 -0.448823,-0.08497 -0.672184,-0.132574 -0.5994933,-0.127767 -1.1908918,-0.289556 -1.786567,-0.433136 -0.3093456,-0.09145 -0.6302288,-0.128811 -0.9461884,-0.18856 -0.3261392,-0.06167 -0.022762,-0.01527 -0.3471037,-0.06067 -0.3719324,-0.03242 -0.7434151,-0.06625 -1.1148795,-0.103825 -0.049974,-0.0053 -0.099939,-0.01062 -0.1499233,-0.01579 -0.062714,-0.0065 -0.1740635,-0.01889 -0.2394669,-0.02056 -0.2006137,-0.0051 -0.021699,0.0083 -0.2543598,0.01611 -0.062321,0.0021 -0.1246926,-0.0021 -0.1870388,-0.0032 -0.5671251,-0.03257 -1.1327653,-0.09268 -1.696708,-0.16075 -0.3063269,-0.05031 -0.6156497,-0.08783 -0.9202562,-0.148605 -0.066826,-0.01333 -0.1327214,-0.03097 -0.1989399,-0.04705 -0.050729,-0.01232 -0.1032175,-0.01928 -0.1518949,-0.03814 -0.035522,-0.01376 -0.065371,-0.03914 -0.098057,-0.0587 1.0940449,0.629386 2.1877038,1.259445 3.282135,1.88816 0.023693,0.0136 -0.05409,-0.02053 -0.069893,-0.04283 -0.021219,-0.02994 -0.028245,-0.06837 -0.034555,-0.10451 -0.031183,-0.178612 -0.00469,-0.37269 0.00944,-0.551145 0.051226,-0.468353 0.087252,-0.938168 0.1293807,-1.407372 0.035502,-0.342095 0.074334,-0.684303 0.066274,-1.028581 -0.023789,-0.326413 0.013166,-0.653171 7.937e-4,-0.979312 -0.031356,-0.344682 -0.043841,-0.689827 -0.0455,-1.035796 -0.0022,-0.321806 4.233e-4,-0.643727 -0.0069,-0.965466 0.00265,-0.32579 0.00228,-0.651455 0.00172,-0.977221 0.00611,-0.259142 0.00918,-0.517841 0.028752,-0.776389 0.00828,-0.212215 -0.00339,-0.425026 -0.012541,-0.637118 -0.021603,-0.312439 -0.014835,-0.624196 0.014451,-0.935849 0.034434,-0.204456 0.060699,-0.410057 0.1005419,-0.613602 0.030852,-0.161434 0.028521,-0.326255 0.046604,-0.489169 0.021378,-0.0911 0.028881,-0.185132 0.048396,-0.276213 0,0 -3.4795541,-1.875975 -3.4795541,-1.875975 v 0 c -0.00959,0.03756 -0.023433,0.07408 -0.030807,0.112134 -0.013815,0.0713 -0.00394,0.148096 -0.022089,0.219137 -0.015965,0.160438 -0.00434,0.322879 -0.025566,0.483372 -0.020222,0.222122 -0.050048,0.442995 -0.049606,0.666708 -0.022197,0.316713 -0.037549,0.634196 -0.053081,0.951235 -0.00937,0.207817 -0.020914,0.416348 -0.012549,0.624311 0.01883,0.268286 0.022824,0.536665 0.02855,0.805493 -7.197e-4,0.326411 -0.00143,0.652727 0.00129,0.979166 -0.00708,0.323949 -0.00391,0.648218 0.00428,0.972117 0.011477,0.344874 0.020884,0.689711 0.027237,1.034692 0.012383,0.322342 0.032169,0.645156 0.012898,0.967726 -0.011965,0.348269 0.01817,0.696165 0.011987,1.044614 -0.00795,0.240477 -0.021551,0.478988 -0.051148,0.71797 -0.036676,0.296136 -0.02704,0.164338 -0.070623,0.452913 -0.01049,0.06946 -0.018355,0.139282 -0.027532,0.208923 -0.00845,0.06735 -0.014838,0.134999 -0.02535,0.202063 -0.00933,0.0595 -0.059173,0.30242 -0.069775,0.366851 -0.2579058,1.567425 0.9132234,1.068885 3.3588878,2.379477 0.3973849,-0.0031 0.7948303,0.04277 1.1895373,0.08232 0.6124366,0.08604 1.2211111,0.203761 1.8399093,0.233963 0.2887202,0.02633 0.5764991,0.06114 0.8668705,0.0616 0.3627935,0.02318 0.7266094,0.04924 1.0843173,0.116912 0.171568,0.03058 0.342677,0.04675 0.514874,0.07246 0.292156,0.04363 0.137243,0.02707 0.442807,0.07924 0.07561,0.01291 0.151676,0.02297 0.227514,0.03444 0.943788,0.142391 1.891055,0.260527 2.834088,0.408062 0.265292,0.04858 0.530775,0.09614 0.795877,0.145748 0.247659,0.04634 0.493968,0.100079 0.742395,0.14211 0.342413,0.05794 0.583484,0.162888 0.887669,-0.0085 0.0538,-0.03032 0.08617,-0.0898 0.118441,-0.142449 0.02332,-0.03804 0.03061,-0.08382 0.04592,-0.125727 0.01262,-0.08743 0.0284,-0.174413 0.03973,-0.262022 0.03085,-0.238612 0.03004,-0.480849 0.07666,-0.717693 0.0728,-0.427342 0.148291,-0.855417 0.148182,-1.290597 0.0013,-0.348016 -0.02253,-0.694823 -0.02387,-1.042701 -3.7e-4,-0.09873 0.0052,-0.197434 0.0043,-0.296159 -9.52e-4,-0.09751 -0.0066,-0.194911 -0.0099,-0.292367 -0.01347,-0.678508 -0.02368,-1.357201 -0.0074,-2.035749 0.03754,-0.667967 0.09474,-1.340054 0.270099,-1.988081 0.03144,-0.09505 0.0569,-0.192295 0.09433,-0.285151 0.09989,-0.247825 0.255609,-0.471882 0.474923,-0.626903 0.11221,-0.09643 0.225867,-0.196107 0.282893,-0.338943 0.02773,-0.06946 0.107432,-0.179229 0.04465,-0.219873 C 15.04214,17.071772 15.94182,17.14668 14.511331,17.06179 12.944018,16.931035 11.383269,16.713315 9.8349694,16.439838 9.2909729,16.329007 8.7444548,16.229901 8.2029795,16.107343 7.6540532,15.9831 7.1099524,15.838376 6.5645178,15.699604 6.1498427,15.5941 5.7363879,15.48385 5.3227026,15.374529 4.633903,15.192506 3.9411516,15.017021 3.2690295,14.778567 Z" />
  </g>
  <g
     id="g20"
     transform="matrix(-1,0,0,1,17.58288,-15.136389)"
     style="display:none">
    <path
       style="display:inline;fill:#1a1a1a;stroke-width:0.264583"
       id="path20"
       d="m 1.9547931,13.76384 c 0.4108087,0.709506 0.9090038,1.363299 1.4091187,2.011147 0.7969482,1.021128 1.7193254,1.935746 2.6167029,2.867202 0.1838748,0.189781 0.366672,0.380611 0.5516244,0.569342 1.102718,1.125243 0.101594,0.08699 1.179639,1.202819 0.486609,0.503666 0.968372,1.011948 1.454312,1.516257 0.510984,0.51288 1.0318579,1.016593 1.5790629,1.491005 0.251974,0.218455 0.509504,0.43042 0.763522,0.646494 0.555071,0.467198 1.11451,0.928267 1.650833,1.417032 0.209001,0.187681 0.404922,0.388952 0.619867,0.569916 0.118305,0.106286 0.06102,0.0537 0.172006,0.157597 0,0 3.609923,1.449133 3.609923,1.449133 v 0 c -0.123517,-0.08445 -0.06402,-0.03918 -0.178476,-0.135842 -0.242087,-0.233638 -0.52353,-0.422778 -0.778025,-0.642229 -0.607269,-0.504894 -1.212052,-1.012499 -1.833753,-1.499722 -0.860111,-0.696366 -1.70592,-1.411554 -2.509765,-2.172735 -1.12301,-1.069494 -2.217099,-2.1681 -3.2671019,-3.309769 -0.823262,-0.899609 -1.663977,-1.785885 -2.418878,-2.74497 C 6.3231845,16.819046 6.2490456,16.728635 6.0175944,16.385784 5.8164312,16.0878 5.615169,15.777897 5.5208443,15.426846 Z" />
  </g>
  <g
     id="layer20"
     style="display:none"
     transform="translate(-1.9333174,-15.136389)">
    <path
       style="display:inline;fill:#1a1a1a;stroke-width:0.264583"
       id="path7-4"
       d="m 1.9547931,13.76384 c 0.4108087,0.709506 0.9090038,1.363299 1.4091187,2.011147 0.7969482,1.021128 1.7193254,1.935746 2.6167029,2.867202 0.1838748,0.189781 0.366672,0.380611 0.5516244,0.569342 1.102718,1.125243 0.101594,0.08699 1.179639,1.202819 0.486609,0.503666 0.968372,1.011948 1.454312,1.516257 0.510984,0.51288 1.0318579,1.016593 1.5790629,1.491005 0.251974,0.218455 0.509504,0.43042 0.763522,0.646494 0.555071,0.467198 1.11451,0.928267 1.650833,1.417032 0.209001,0.187681 0.404922,0.388952 0.619867,0.569916 0.118305,0.106286 0.06102,0.0537 0.172006,0.157597 0,0 3.609923,1.449133 3.609923,1.449133 v 0 c -0.123517,-0.08445 -0.06402,-0.03918 -0.178476,-0.135842 -0.242087,-0.233638 -0.52353,-0.422778 -0.778025,-0.642229 -0.607269,-0.504894 -1.212052,-1.012499 -1.833753,-1.499722 -0.860111,-0.696366 -1.70592,-1.411554 -2.509765,-2.172735 -1.12301,-1.069494 -2.217099,-2.1681 -3.2671019,-3.309769 -0.823262,-0.899609 -1.663977,-1.785885 -2.418878,-2.74497 C 6.3231845,16.819046 6.2490456,16.728635 6.0175944,16.385784 5.8164312,16.0878 5.615169,15.777897 5.5208443,15.426846 Z" />
  </g>
  <g
     id="layer7"
     style="display:none"
     transform="translate(-1.9333174,-15.136389)">
    <path
       style="fill:#1a1a1a;stroke-width:0.264583"
       id="path10"
       d="m 12.213184,22.89277 c -0.01089,-0.03052 -0.02597,-0.05986 -0.03268,-0.09157 -0.0083,-0.03921 -0.0086,-0.0797 -0.01206,-0.119624 -0.02789,-0.321637 0.0066,0.03401 -0.02368,-0.329423 -0.01457,-0.175139 -0.03307,-0.333715 -0.05215,-0.5097 -0.110297,-0.802065 -0.02627,-1.611399 0.03806,-2.413376 0.01335,-0.127387 0.02836,-0.254612 0.04005,-0.382162 0.01166,-0.127209 0.0175,-0.254922 0.03001,-0.38205 0.03664,-0.372325 0.09795,-0.740136 0.178239,-1.105259 0.384591,-1.618954 0.550886,-0.461888 -3.2738439,-2.429433 -0.081247,-0.0418 -0.1350315,0.12316 -0.2043494,0.182682 -0.09463,0.08126 -0.191616,0.159734 -0.2874237,0.2396 -0.3716925,0.290518 -0.6657494,0.664433 -1.020136,0.973048 -0.2550078,0.222072 -1.3091848,1.004566 -1.5658187,1.206156 -0.6341144,0.498108 -0.8754856,0.715803 -1.4807631,1.234494 -0.2101765,0.202193 -0.427718,0.397001 -0.6305298,0.606581 -0.3296883,0.340691 -0.7366019,0.835296 -1.0480744,1.19775 -0.1446641,0.168342 -0.2937743,0.33287 -0.4365379,0.502827 -0.1231325,0.146587 -0.2395829,0.298669 -0.3610275,0.446657 -0.097136,0.118367 -0.1964619,0.23492 -0.2946928,0.352381 -7.62e-4,0.001 -0.412665,0.46469 -0.2670522,0.562779 1.1096112,0.747465 2.2716945,1.423408 3.4742906,2.009671 0.2539097,0.12378 0.5623086,0.05595 0.8421296,0.09457 1.1697983,0.161484 1.3345961,0.215325 2.5378915,0.458024 0.4398155,0.09723 0.8798353,0.193546 1.3194466,0.291699 0.3980151,0.08887 0.7952721,0.181111 1.1934251,0.269355 1.162518,0.257655 2.327745,0.502515 3.488433,0.768399 0.571953,0.140482 1.14946,0.262399 1.717367,0.419287 0.16436,0.04541 0.35299,0.10719 0.517064,0.159606 0.05874,0.02302 0.117369,0.04632 0.176222,0.06905 0.108757,0.042 0.138717,0.04712 0.234997,0.100167 0.07137,0.03932 0.135195,0.083 0.209973,0.116243 0.127354,0.05911 -0.02666,-0.0069 0.109073,0.03376 0.06252,0.02859 0.0304,0.01667 0.09636,0.03576 0,0 -3.099223,-2.420894 -3.099223,-2.420894 v 0 c -0.02884,-0.01305 -0.06013,-0.02028 -0.08874,-0.03381 -0.01498,-0.0071 -0.02779,-0.01805 -0.04169,-0.02707 -0.01581,-0.0066 -0.03162,-0.01317 -0.04743,-0.01975 -0.155714,-0.06723 -0.329131,-0.07967 -0.495386,-0.102858 -0.595859,-0.08337 -1.188446,-0.19665 -1.791905,-0.211189 -0.177022,-0.01416 -0.354292,-0.0255 -0.531065,-0.04248 -0.560744,-0.05387 -0.89778,-0.101503 -1.4695116,-0.176632 C 9.3938655,24.36473 8.3697586,24.229549 7.9272504,24.16158 7.5303373,24.100614 7.1348339,24.0308 6.7386254,23.96541 5.5191849,23.703211 5.0926208,23.6433 3.8807045,23.246327 3.4475078,23.10443 2.2897235,22.431548 2.6007519,22.764798 c 0.6048836,0.648101 1.4622235,1.003449 2.2106073,1.478676 0.061873,0.03929 -0.1277001,-0.0948 -0.143864,-0.166285 -0.023662,-0.104655 0.022593,-0.2134 0.033891,-0.3201 0.046579,-0.139958 0.08255,-0.283905 0.139736,-0.419874 0.071989,-0.171164 0.1608106,-0.334832 0.2468814,-0.499366 0.099465,-0.190138 0.1976181,-0.381365 0.3096008,-0.56441 0.4151535,-0.678603 0.924931,-1.292125 1.4527864,-1.884645 0.2100474,-0.21426 0.4108336,-0.43801 0.6301427,-0.642781 0.4488537,-0.419099 1.0289932,-0.883679 1.5413411,-1.220298 0.2828784,-0.185855 0.5704207,-0.367487 0.87475,-0.515629 0.5586394,-0.271937 1.0049264,-0.382812 1.5799454,-0.551875 0.147471,-0.02603 0.292785,-0.07204 0.442413,-0.07807 0.0889,-0.0036 0.336085,0.09932 0.262258,0.04966 -1.03262,-0.694542 -2.103546,-1.330362 -3.1553191,-1.995542 0.016798,0.02762 0.041766,0.05171 0.050399,0.08287 0.00737,0.02658 0.028268,0.340485 0.028569,0.344683 0.022942,0.402846 0.04117,0.807656 0.025305,1.211166 -0.00505,0.1284 -0.017603,0.256407 -0.024127,0.38474 -0.00667,0.131174 -0.010298,0.262485 -0.015446,0.393728 -0.054046,0.781713 -0.074261,1.570359 -0.2269982,2.340976 -0.022122,0.147217 -0.04486,0.294344 -0.06646,0.441639 -0.018068,0.123216 -0.021603,0.168422 -0.044689,0.285774 -0.00675,0.03429 -0.011179,0.0694 -0.022979,0.102293 -0.00959,0.02674 -0.027063,0.04995 -0.040595,0.07493 z" />
  </g>
  <g
     id="layer6"
     style="display:none"
     transform="translate(-1.9333174,-15.136389)">
    <path
       style="fill:#1a1a1a;stroke-width:0.264583"
       id="path9"
       d="m 5.5094332,25.625131 c -0.021164,-0.02817 -0.045608,-0.05415 -0.063488,-0.08451 -0.209691,-0.356049 -0.2381912,-0.904976 -0.2725169,-1.30347 0.00694,-0.155654 0.00563,-0.311894 0.020815,-0.46696 0.050414,-0.514777 0.173451,-1.031311 0.3404058,-1.52013 0.1298463,-0.380171 0.2266701,-0.572499 0.3904763,-0.935697 0.32709,-0.759523 0.7542617,-1.472459 1.3072451,-2.089651 0.1109593,-0.123843 0.2310495,-0.239191 0.346574,-0.358786 0.1308571,-0.121219 0.2534422,-0.252029 0.392571,-0.363657 0.1397143,-0.112097 0.2906847,-0.209748 0.4418579,-0.305833 0.3733556,-0.237305 0.7751503,-0.434565 1.1831351,-0.604559 0.098731,-0.04114 0.1995345,-0.07711 0.299302,-0.11567 0.2088295,-0.06819 0.4226915,-0.137324 0.6433145,-0.155405 0.173852,-0.01425 0.340113,0.01484 0.509473,0.0485 0.492748,0.10199 0.945843,0.316888 1.391581,0.542449 0.08152,0.04599 0.16279,0.09242 0.244556,0.137967 0.08333,0.04642 0.167764,0.09086 0.250732,0.137918 0.08323,0.04721 0.330803,0.192536 0.247824,0.144881 -5.0579608,-2.904837 -3.4906591,-2.043355 -2.425601,-1.37315 0.333696,0.219492 0.646822,0.467415 0.943511,0.73429 0.310242,0.287652 0.586911,0.600548 0.849524,0.931902 0.04668,0.06276 0.09386,0.125152 0.140042,0.188279 0.114804,0.156924 0.181551,0.246584 0.281125,0.412874 0.116852,0.195145 0.211019,0.400624 0.303051,0.608139 0.142918,0.318051 0.240788,0.653231 0.311765,0.993992 0.01923,0.09234 0.03364,0.185639 0.0531,0.277926 0.02368,0.112245 0.05086,0.223719 0.0763,0.335579 0.05218,0.305483 0.07387,0.615548 0.08019,0.925132 0.0064,0.313337 -0.0066,0.181686 -0.0018,0.48238 0.0013,0.079 0.0058,0.157916 0.0088,0.236873 -0.0026,0.233568 -0.02381,0.467924 -0.07936,0.695238 -0.02043,0.0836 -0.04473,0.16621 -0.06548,0.249726 -0.0589,0.217427 -0.170966,0.411059 -0.282633,0.604212 -0.08687,0.169347 -0.214459,0.309725 -0.330101,0.458647 -0.132484,0.147999 -0.280015,0.288212 -0.445195,0.399868 -0.03661,0.02475 -0.07603,0.04505 -0.114052,0.06757 -0.138737,0.07893 -0.28315,0.152763 -0.434343,0.20536 -0.0073,0.0025 -0.180159,0.05141 -0.188646,0.05381 -0.288818,0.06465 -0.584847,0.06284 -0.879016,0.06367 -0.259231,-0.0084 -0.51505,-0.06346 -0.754087,-0.164606 -0.05002,-0.02116 -0.09826,-0.04631 -0.147385,-0.06946 -0.04685,-0.02375 -0.09461,-0.04578 -0.1405455,-0.07125 -0.04225,-0.02343 -0.1657618,-0.09934 -0.12381,-0.07537 1.0568305,0.603754 2.1121465,1.210156 3.1684905,1.814761 0.02569,0.0147 -0.05074,-0.03049 -0.07651,-0.04505 -0.123019,-0.06948 -0.02939,-0.0098 -0.145785,-0.08806 -0.200042,-0.13412 -0.337605,-0.334559 -0.471505,-0.53037 -0.181024,-0.261838 -0.339162,-0.539022 -0.493918,-0.816957 -0.09973,-0.193341 -0.199422,-0.387177 -0.271616,-0.592944 -0.03277,-0.09341 -0.06472,-0.213182 -0.09141,-0.308356 -0.0554,-0.229944 -0.121472,-0.458368 -0.153764,-0.69319 -0.007,-0.05107 -0.03251,-0.331411 -0.03709,-0.380613 -0.0033,-0.06348 -0.0056,-0.127014 -0.01,-0.190428 -0.01568,-0.228783 -0.02307,-0.193382 -0.02403,-0.422524 -7.15e-4,-0.169476 0.01357,-0.336241 0.03397,-0.504176 0.0058,-0.03726 0.01151,-0.07452 0.01727,-0.111786 0,0 -3.4120902,-1.738072 -3.4120902,-1.738072 v 0 c 0.00584,0.04354 0.011689,0.08709 0.017534,0.130631 0.020804,0.182908 0.03747,0.365279 0.042408,0.549461 0.015068,0.56203 -0.00928,-0.130273 -0.00303,0.421486 7.408e-4,0.06626 0.0062,0.132374 0.0093,0.19856 0.015542,0.325695 6.086e-4,0.07418 0.027707,0.397896 0.020167,0.240953 0.026774,0.484526 0.093122,0.718914 0.080853,0.333461 0.1663846,0.668033 0.3269451,0.973831 0.037255,0.08063 0.098296,0.216554 0.1414013,0.294929 0.025405,0.04619 0.055239,0.08981 0.081971,0.135253 0.079883,0.13578 0.1490091,0.277246 0.2318491,0.411299 0.085347,0.142347 0.1631174,0.288671 0.2468147,0.431947 0.017492,0.02994 0.032834,0.06119 0.051867,0.09018 0.017841,0.02717 0.039034,0.05199 0.058552,0.07799 0.074122,0.08 0.1418682,0.157101 0.2377675,0.212482 1.2887755,0.744265 2.3114355,1.585387 3.6364765,2.033394 0.117844,0.03368 0.212618,0.06349 0.333936,0.08657 0.211782,0.0403 0.429523,0.03652 0.643729,0.02445 0.179326,-0.0082 0.35865,-0.01836 0.537757,-0.0305 0.08976,-0.0061 0.280841,-0.01947 0.370282,-0.03776 0.04208,-0.0086 0.08185,-0.02609 0.122769,-0.03914 0.225886,-0.09829 0.434141,-0.230551 0.637673,-0.368606 0.09366,-0.07484 0.129298,-0.105361 0.22802,-0.175737 0.151645,-0.108103 0.298622,-0.208035 0.421208,-0.351465 0.147198,-0.157619 0.262926,-0.339785 0.372414,-0.525151 0.119431,-0.226271 0.200197,-0.468423 0.279453,-0.711165 0.01398,-0.04835 0.0309,-0.09594 0.04193,-0.145039 0.07095,-0.315918 0.04087,-0.642748 0.03088,-0.962778 -0.0024,-0.08106 -0.0018,-0.16226 -0.0072,-0.243177 -0.01055,-0.159384 -0.04172,-0.370764 -0.0615,-0.527242 -0.04059,-0.321106 -0.08406,-0.641982 -0.113396,-0.964373 -0.0053,-0.105367 -0.0058,-0.211073 -0.01576,-0.316103 -0.009,-0.0949 -0.02625,-0.188845 -0.0409,-0.283039 -0.05412,-0.34792 -0.111999,-0.697071 -0.222877,-1.032268 -0.07122,-0.183542 -0.09979,-0.268166 -0.186093,-0.446083 -0.144539,-0.297988 -0.318907,-0.582486 -0.508198,-0.853783 -0.133093,-0.181129 -0.263629,-0.364929 -0.400645,-0.543122 -0.03819,-0.04967 -0.07944,-0.09693 -0.117674,-0.146563 -0.03541,-0.04597 -0.0654,-0.09615 -0.103196,-0.140175 -0.03733,-0.04348 -0.08103,-0.08105 -0.121549,-0.121578 -0.193912,-0.192956 -0.398069,-0.375833 -0.618252,-0.53876 -0.06806,-0.05037 -0.13893,-0.09684 -0.207849,-0.146027 -0.07279,-0.05195 -0.144851,-0.104933 -0.217276,-0.1574 C 13.965822,18.162867 13.871131,18.09024 13.697994,17.989301 12.353332,17.205365 11.014694,16.374738 9.6223497,15.664376 9.4543395,15.587276 9.2604912,15.495817 9.0893077,15.427931 8.7690504,15.300927 8.4330341,15.218671 8.0938954,15.16108 8.0063034,15.15288 7.9190971,15.13651 7.8311192,15.13639 7.7694462,15.136302 7.7082393,15.14883 7.6476693,15.16044 7.3629173,15.21504 7.1324221,15.350612 6.9017996,15.521683 6.1889775,16.058467 5.4921978,16.615786 4.7826742,17.156874 4.6590651,17.282006 4.52994,17.401919 4.4118474,17.53227 4.1531926,17.817774 4.001701,18.03013 3.7905976,18.351151 3.5075022,18.78165 3.2535167,19.231397 3.0534967,19.706889 c -0.082196,0.21895 -0.2898005,0.767778 -0.3641568,0.983201 -0.222041,0.643292 -0.4011105,1.300494 -0.5763775,1.957681 -0.03181,0.125992 -0.071833,0.250192 -0.095431,0.377977 -0.017873,0.09678 -0.0204,0.195792 -0.028637,0.293867 -0.018239,0.217148 -0.027127,0.43552 -0.055577,0.651664 z" />
  </g>
  <g
     id="layer1"
     style="display:none"
     transform="translate(-1.9333174,-15.136389)">
    <path
       style="display:inline;fill:#1a1a1a;stroke-width:0.264583"
       id="path4"
       d="M 6.0755505,27.824909 C 6.6349638,27.314498 7.175266,26.782212 7.70409,26.240197 c 0.4244023,-0.480953 0.8349586,-0.970175 1.2221025,-1.481622 0.138888,-0.183482 0.2825943,-0.363611 0.4127511,-0.553386 0.2452806,-0.357633 0.5792983,-0.931292 0.8002954,-1.301824 0.44639,-0.799224 0.886643,-1.611031 1.181285,-2.481154 0.135546,-0.400288 0.213962,-0.746475 0.316469,-1.154817 0.111034,-0.455445 0.207885,-0.914271 0.315093,-1.370581 0.02274,-0.09677 0.03795,-0.196029 0.07232,-0.289296 0.01466,-0.03978 0.03974,-0.05609 0.0019,-0.07516 -1.161363,-0.58464 -2.0548833,-1.020727 -3.2345125,-1.567574 0.052607,0.04528 0.025938,0.147222 0.047327,0.148345 0.1673438,0.0088 -0.044049,0.211101 -0.00922,0.375016 0.1049721,0.494042 0.1826996,0.9937 0.2916523,1.48688 0.1643412,0.743899 0.3184433,1.274129 0.5197123,2.015126 0.4627439,1.448484 1.0879379,2.84512 1.9534659,4.099292 0.421785,0.611176 0.661796,0.871795 1.126864,1.42431 0.531886,0.597784 1.109534,1.152653 1.703157,1.688408 0.115078,0.09985 0.233507,0.195064 0.354913,0.287004 l 3.619511,1.442884 v 0 c -0.129716,-0.09968 -0.265473,-0.189923 -0.393752,-0.291563 -0.758651,-0.554331 -1.480139,-1.163071 -2.158379,-1.812771 -0.562422,-0.58798 -0.765721,-0.768946 -1.271081,-1.434402 -0.90932,-1.19739 -1.600163,-2.539625 -1.993548,-3.993674 -0.07496,-0.334539 -0.160604,-0.666863 -0.224881,-1.003618 -0.08648,-0.453081 -0.182553,-1.1774 -0.216302,-1.653541 -0.01714,-0.241874 -0.103408,-0.710927 -0.0884,-0.992348 -0.02655,-0.107025 -0.04633,-0.245444 -0.01324,-0.361913 -1.196681,-0.560695 -3.1630219,-2.879497 -3.3023438,-1.565339 -0.00662,0.06248 0.041051,0.288619 -0.00434,0.266528 0.00464,0.578016 -0.1643464,0.905911 -0.2607746,1.47271 -0.1096423,0.5066 -0.1266172,0.631074 -0.2758573,1.132182 -0.2563092,0.86062 -0.6126987,1.687975 -1.0551874,2.46932 -0.1323745,0.214344 -0.2571832,0.433548 -0.3971232,0.643031 -0.137129,0.205274 -0.2866654,0.402015 -0.4335438,0.60043 -0.5105175,0.689647 -1.0684883,1.345702 -1.6987163,1.929622 -0.566701,0.510516 -1.1337041,1.048963 -1.8390478,1.363454 z" />
    <path
       style="display:inline;fill:#1a1a1a;stroke-width:0.264583"
       id="path5"
       d="m 12.093034,18.823876 c -0.0358,-0.406188 -0.02888,-0.814374 -0.0449,-1.221378 -0.03555,-0.90326 -0.0282,-0.131485 -0.0258,-1.029336 0.0039,-0.410277 0.02521,-0.819309 0.05811,-1.22807 0.0064,-0.07958 0.01897,-0.158955 0.01849,-0.238787 -3.97e-4,-0.06796 0.03618,-0.166211 -0.0211,-0.202783 -1.130099,-0.721572 -2.3156634,-1.352353 -3.4734948,-2.02853 -0.1090491,0.03825 -0.21604,0.08297 -0.3271467,0.114751 -0.3037838,0.0869 -0.8711412,0.201347 -1.1553987,0.250307 -0.82332,0.141809 -1.6489256,0.215807 -2.4812471,0.276989 -0.9148685,0.05888 -1.8316836,0.09571 -2.7485609,0.08771 -0.2736076,-0.02028 -0.5331481,0.08232 -0.7983508,0.134954 l 3.1967709,2.228102 v 0 c 0.24687,-0.04913 0.4948634,-0.08198 0.7444147,-0.112694 0.7951261,-0.130211 1.5897323,-0.265948 2.391329,-0.351562 0.8504457,-0.08846 1.701601,-0.171093 2.5534379,-0.245209 0.3116845,-0.02712 1.0206275,-0.09423 1.3635985,-0.07541 0.112262,0.0062 0.220499,0.04408 0.330748,0.06612 -1.048889,-0.642478 -1.9825492,-1.277057 -3.0302101,-1.921536 -0.045466,-0.02797 -0.00555,0.02714 0.023498,0.07192 0.044733,0.06897 0.052623,0.156655 0.064843,0.237951 0.062106,0.413154 0.019092,0.862949 0.044865,1.278468 -0.011499,0.748017 0.00734,0.262612 -0.047527,0.986861 -0.02801,0.369761 -0.036809,0.744608 -0.125625,1.106586 z" />
  </g>
  <g
     id="layer2"
     transform="translate(-2.8296008,-16.032672)"
     style="display:none">
    <path
       style="display:inline;fill:#1a1a1a;stroke-width:0.264583"
       id="path7"
       d="m 2.7681346,14.561729 c 0.4108087,0.709506 0.9090038,1.363299 1.4091187,2.011147 0.7969482,1.021128 1.7193254,1.935746 2.6167029,2.867202 0.1838748,0.189781 0.366672,0.380611 0.5516245,0.569342 1.1027182,1.125243 0.1015939,0.08699 1.1796392,1.202819 0.4866087,0.503666 0.9683716,1.011948 1.4543117,1.516257 0.5109844,0.51288 1.0318584,1.016593 1.5790634,1.491005 0.251974,0.218455 0.509504,0.43042 0.763522,0.646494 0.555071,0.467198 1.11451,0.928267 1.650833,1.417032 0.209001,0.187681 0.404922,0.388952 0.619867,0.569916 0.118305,0.106286 0.06102,0.0537 0.172006,0.157597 0,0 3.609923,1.449133 3.609923,1.449133 v 0 c -0.123517,-0.08445 -0.06402,-0.03918 -0.178476,-0.135842 -0.242087,-0.233638 -0.52353,-0.422778 -0.778025,-0.642229 -0.607269,-0.504894 -1.212052,-1.012499 -1.833753,-1.499722 -0.860111,-0.696366 -1.70592,-1.411554 -2.509765,-2.172735 -1.12301,-1.069494 -2.217099,-2.1681 -3.2671026,-3.309769 C 8.9843627,19.799767 8.1436471,18.913491 7.3887469,17.954406 7.136526,17.616935 7.0623871,17.526524 6.8309359,17.183673 6.6297727,16.885689 6.4285105,16.575786 6.3341858,16.224735 Z" />
    <path
       style="display:inline;fill:#1a1a1a;stroke-width:0.264583"
       id="path7-3"
       d="m 17.456741,14.833042 c -0.410809,0.709506 -0.909004,1.363299 -1.409119,2.011147 -0.796948,1.021128 -1.719325,1.935746 -2.616703,2.867202 -0.183875,0.189781 -0.366672,0.380611 -0.551624,0.569342 -1.102719,1.125243 -0.101594,0.08699 -1.17964,1.202819 -0.486608,0.503666 -0.968371,1.011948 -1.454311,1.516257 -0.5109846,0.51288 -1.0318586,1.016593 -1.5790636,1.491005 -0.251974,0.218455 -0.509504,0.43042 -0.763522,0.646494 -0.555071,0.467198 -1.11451,0.928267 -1.650833,1.417032 -0.209001,0.187681 -0.404922,0.388952 -0.619867,0.569916 -0.118305,0.106286 -0.06102,0.0537 -0.172006,0.157597 0,0 -3.6099227,1.449133 -3.6099227,1.449133 v 0 c 0.123517,-0.08445 0.06402,-0.03918 0.178476,-0.135842 0.242087,-0.233638 0.52353,-0.422778 0.778025,-0.642229 0.607269,-0.504894 1.212052,-1.012499 1.833753,-1.499722 0.8601107,-0.696366 1.7059197,-1.411554 2.5097647,-2.172735 1.12301,-1.069494 2.217099,-2.1681 3.2671026,-3.309769 0.823262,-0.899609 1.663977,-1.785885 2.418877,-2.74497 0.252221,-0.337471 0.32636,-0.427882 0.557811,-0.770733 0.201164,-0.297984 0.402426,-0.607887 0.49675,-0.958938 z" />
  </g>
  <g
     id="layer3"
     style="display:none"
     transform="translate(-1.9333174,-15.136389)">
    <path
       style="display:inline;fill:#1a1a1a;stroke-width:0.264583"
       id="path8"
       d="m 6.022596,17.768668 c 0.0097,-0.0091 0.01761,-0.02072 0.02921,-0.02728 0.02474,-0.01399 0.05173,-0.02371 0.0784,-0.03357 0.155537,-0.05748 0.188198,-0.06236 0.373167,-0.09277 0.273704,-0.045 0.448005,-0.05941 0.732942,-0.09047 0.170307,-0.01369 0.340332,-0.0315 0.51092,-0.04106 0.196997,-0.01104 0.394249,-0.0203 0.591555,-0.02072 0.397575,-8.47e-4 0.817355,0.03046 1.214648,0.04864 0.44101,0.02018 0.518775,0.01997 0.939026,0.0301 0.118943,-0.02415 0.23832,-0.04625 0.356831,-0.07244 0.109861,-0.02428 0.220616,-0.04592 0.328175,-0.07893 0.09973,-0.03061 0.195951,-0.07181 0.292404,-0.111549 0.255351,-0.105214 0.496128,-0.233748 0.736737,-0.368306 0.251501,-0.168677 0.50652,-0.338166 0.729727,-0.544347 0.130784,-0.120808 0.184706,-0.191126 0.301265,-0.32618 0.240365,-0.216948 0.432112,-0.483507 0.680465,-0.69152 0.01997,-0.0074 0.04027,-0.03062 0.0599,-0.02232 0.0171,0.0072 -0.0024,-0.04053 -0.01859,-0.04958 -1.14707,-0.639944 -2.118529,-1.126247 -3.273855,-1.751162 -0.037,-0.02001 -0.08624,-0.0201 -0.08154,0.0217 0.01631,0.145108 -0.0078,0.255457 -0.02657,0.400244 -0.07254,0.378146 -0.126106,0.759608 -0.183229,1.140288 -0.01747,0.116447 -0.03881,0.23236 -0.05302,0.349249 -0.01599,0.131534 -0.02503,0.26382 -0.03755,0.395731 -0.07773,0.751752 -0.01261,0.0811 -0.07628,0.869871 -0.03715,0.460275 -0.06509,0.502564 -0.02843,0.988819 0.212473,2.818063 -0.04,-1.522796 0.121346,1.429028 0.0062,0.970079 0.01115,0.490281 -0.01405,1.442985 -0.0061,0.230739 -0.0094,0.461567 -0.01832,0.692216 -0.0017,0.416872 -0.05681,0.830686 -0.07508,1.246557 -0.009,0.203555 -0.0076,0.407434 -0.01134,0.61115 -0.02874,0.449028 -0.113677,0.88986 -0.236208,1.321887 -0.04455,0.15708 -0.09795,0.323754 -0.15953,0.476123 -0.01995,0.04936 -0.04396,0.09698 -0.06595,0.145473 -0.03711,0.07039 -0.05576,0.109244 -0.09553,0.173746 -0.0091,0.01479 -0.02061,0.02806 -0.02909,0.04322 -0.02274,0.04064 -0.03437,0.08702 -0.04614,0.13159 -0.0093,0.07494 -0.0085,0.14894 -0.0226,0.223425 l 3.490472,1.764247 v 0 c -0.0045,-0.01156 -0.01144,-0.02246 -0.01338,-0.03471 -0.0066,-0.04145 0.0096,-0.08174 0.0079,-0.123016 7.94e-4,-0.04841 0.0047,-0.09777 0.0026,-0.146103 -0.0051,-0.118554 -0.03802,-0.2326 -0.05592,-0.349448 -0.140207,-0.77987 -0.270054,-1.564047 -0.295543,-2.357709 0.0021,-0.20583 0.0118,-0.411717 0.0065,-0.617489 -0.0055,-0.213105 -0.02831,-0.425431 -0.03908,-0.638336 -0.03091,-0.611055 -0.03141,-0.765889 -0.03543,-1.383132 -0.0057,-0.868813 -0.0082,-0.563851 0.03031,-1.429919 0.133319,-1.113838 0.0015,-0.232082 0.217231,-1.23988 0.136213,-0.63621 0.04517,-0.298008 0.141418,-0.910973 0.04467,-0.284473 0.103376,-0.523384 0.166625,-0.803104 0.0332,-0.117927 0.06712,-0.235654 0.09961,-0.35378 0.02955,-0.107449 0.05508,-0.216013 0.08649,-0.322931 0.101011,-0.343751 0.230675,-0.678455 0.376447,-1.005486 0.07416,-0.137666 0.0892,-0.192002 0.197267,-0.299863 0.02895,-0.02889 0.132156,-0.05247 0.0976,-0.07435 -1.114658,-0.705866 -2.257688,-1.366493 -3.404103,-2.019516 -0.02188,-0.01246 -0.0086,0.04974 -0.0098,0.07489 -10e-4,0.02143 0.0021,0.04285 0.0031,0.06428 -0.02159,0.0876 -0.02314,0.108289 -0.06175,0.196407 -0.09064,0.206869 -0.229386,0.387855 -0.365665,0.566006 -0.298489,0.289781 -0.604437,0.574721 -0.944946,0.815138 -0.16297,0.11287 -0.216058,0.155061 -0.391657,0.253865 -0.190676,0.107288 -0.269986,0.141255 -0.476799,0.219996 -0.08615,0.0328 -0.171748,0.06803 -0.260621,0.09252 -0.100672,0.02774 -0.20447,0.04254 -0.306705,0.06381 -0.09436,0.02581 -0.187584,0.05621 -0.283086,0.07741 -0.24932,0.05534 -0.585937,0.103917 -0.834855,0.119851 -0.191689,0.01227 -0.384014,0.01843 -0.576057,0.01464 C 5.674567,15.833121 5.22924,15.782001 4.79171,15.73986 4.21001,15.67053 4.289331,15.68314 3.747862,15.607545 3.4715239,15.568965 3.1951109,15.528075 2.9224669,15.467771 c -0.03509,-0.0078 -0.06954,-0.01819 -0.104314,-0.02728 z" />
  </g>
  <g
     id="layer4"
     style="display:inline"
     transform="translate(-1.9333174,-15.136389)">
    <path
       style="display:inline;fill:#1a1a1a;stroke-width:0.264583"
       id="path6"
       d="m 2.9708697,14.790538 c 0.060329,0.376202 0.023429,0.760394 0.050952,1.138906 0.012086,0.166212 0.1347603,1.207099 0.146566,1.309005 0.087208,0.526049 0.1780056,1.151539 0.3159154,1.667285 0.074323,0.277946 0.1653844,0.551547 0.2653551,0.821332 0.1563881,0.422033 0.3824515,0.934812 0.6458561,1.309196 0.118396,0.16828 0.3277991,0.417702 0.4622156,0.573484 1.4673587,1.352463 1.4950118,1.401304 3.5438954,2.0842 0.1897784,0.06325 0.6857,0.04349 0.8853022,0.03026 0.358942,-0.02381 0.8210975,-0.08352 1.1646575,-0.20231 0.183577,-0.06347 0.352872,-0.162476 0.529309,-0.243714 0.160721,-0.116576 0.330272,-0.221862 0.482164,-0.349729 0.152847,-0.128671 0.29174,-0.273363 0.429688,-0.417894 0.445382,-0.466634 0.806637,-0.993904 1.150729,-1.536728 0.185666,-0.293585 0.421699,-0.454477 0.551974,-0.777073 -0.05682,0.08358 -0.01182,-0.262594 -0.01945,-0.23021 -0.298179,1.264911 -2.336885,-1.138254 -3.492886,-1.732031 -0.04622,-0.02374 0.07207,0.07563 0.10062,0.119039 0.05435,0.08263 0.0981,0.171756 0.147154,0.257634 0.442064,0.861211 0.848552,1.74067 1.198946,2.643166 0.108634,0.294089 0.207571,0.591434 0.315721,0.885681 0.02584,0.07032 0.04748,0.142362 0.07805,0.210755 0.02726,0.06099 0.228649,0.443711 0.261386,0.506277 0.24307,0.445742 0.512344,0.876353 0.754375,1.322652 0.115179,0.208012 0.238938,0.410259 0.339213,0.626 0.05819,0.112321 0.110361,0.230169 0.194323,0.325933 0.0087,0.0099 0.02034,0.01786 0.02614,0.0297 0.01602,0.03269 0.01449,0.07195 0.02924,0.105231 0.0057,0.01289 0.01796,0.02212 0.02367,0.035 0.03963,0.08926 -0.01089,0.0218 0.03939,0.0811 0.0081,0.01294 0.01456,0.02708 0.02435,0.0388 0.0081,0.0097 0.02059,0.01497 0.02862,0.02468 0.01027,0.01241 0.01596,0.0281 0.02567,0.04095 0.0083,0.01098 0.02033,0.01889 0.02815,0.03024 0.03163,0.05933 0.01411,0.03231 0.05151,0.08174 0.0056,0.01794 0.01116,0.03586 0.01674,0.05379 l 3.617097,1.596583 v 0 c -0.01087,-0.0086 -0.02173,-0.01712 -0.0326,-0.02566 -0.05785,-0.164857 0.01961,0.04328 -0.04357,-0.09277 -0.0077,-0.01662 -0.0098,-0.03544 -0.01764,-0.05201 -0.0063,-0.01334 -0.01774,-0.02376 -0.02419,-0.037 -0.0075,-0.01548 -0.0092,-0.0335 -0.01746,-0.04859 -0.0064,-0.01159 -0.01716,-0.02011 -0.02573,-0.03015 -0.07579,-0.131101 0.03241,0.03898 -0.05631,-0.05326 -0.01095,-0.0114 -0.01132,-0.03007 -0.02118,-0.04242 -0.008,-0.01003 -0.02164,-0.0141 -0.03098,-0.02291 -0.03915,-0.03696 -0.02846,-0.0374 -0.04113,-0.0972 -0.04636,-0.13164 -0.144922,-0.233497 -0.222421,-0.348133 -0.0878,-0.130389 -0.152363,-0.272987 -0.237872,-0.40458 -0.02801,-0.04311 -0.06009,-0.08345 -0.08904,-0.125933 -0.03356,-0.04925 -0.06566,-0.09948 -0.09849,-0.149225 -0.296368,-0.434573 -0.598018,-0.866976 -0.838375,-1.33622 -0.300227,-0.539938 -0.554585,-1.10501 -0.841061,-1.652339 -0.390123,-0.825476 -0.769942,-1.660527 -1.011888,-2.543712 -0.0127,-0.0712 -0.02982,-0.141749 -0.03809,-0.213597 -0.0049,-0.04279 0.03581,-0.107441 -0.0013,-0.129221 -0.318842,-0.18685 -2.965348,-3.147469 -3.57656,-1.790232 -0.01952,0.04335 -0.007,0.09702 -0.03021,0.139398 -0.0315,0.333382 -0.08355,0.663877 -0.2043725,0.978743 -0.04278,0.111662 -0.07985,0.225688 -0.128357,0.334987 -0.268062,0.604032 -0.661201,1.16526 -1.1910083,1.568577 -0.1426138,0.108564 -0.3027664,0.191919 -0.4541496,0.287878 -0.1644721,0.06414 -0.2992228,0.141983 -0.4683995,0.192427 -0.3096709,0.09233 -0.3728,0.139619 -0.7531294,0.03126 -0.2841312,-0.08095 -1.0857324,-0.107266 -0.9290385,0.01 0.028738,0.0215 3.8162313,2.334579 1.9558307,1.198282 C 7.751212,22.651157 7.5715295,22.522927 7.4241646,22.361836 6.7112429,21.58251 6.3225467,20.525037 6.1853894,19.49173 c -0.033179,-0.249958 -0.033122,-0.503212 -0.049683,-0.754818 0.045482,-0.853974 6.615e-4,-0.399791 0.1091216,-1.14285 0.048999,-0.335681 0.086693,-0.678633 0.207591,-0.998195 z" />
  </g>
  <g
     id="layer5"
     style="display:none"
     transform="translate(-1.9333174,-15.136389)">
    <path
       style="display:inline;fill:#1a1a1a;stroke-width:0.264583"
       id="path2"
       d="M 5.8312944,26.004383 C 5.7684391,25.902282 5.7435676,25.874093 5.7060791,25.745617 5.6108701,25.41931 5.6137611,25.05053 5.606687,24.714025 5.56101,24.148572 5.595678,23.581383 5.610057,23.015659 c 0.00724,-0.28478 0.00477,-0.686065 0.00439,-0.969705 -0.00338,-0.878227 -0.00251,-1.756091 0.026989,-2.633848 0.036627,-0.535947 0.1190799,-1.070974 0.2681326,-1.587528 0.046573,-0.101226 0.083555,-0.243875 0.1925104,-0.301896 0.1008951,-0.05373 0.2428712,4.61e-4 0.3421518,0.02262 0.06109,0.01463 0.1221225,0.02949 0.1832678,0.04388 0.071683,0.01687 0.1438813,0.03159 0.2152105,0.0499 0.076492,0.01963 0.304354,0.08458 0.2281408,0.06389 -5.9914127,-1.62688 -4.1335749,-1.213876 -2.9319935,-0.768706 0.5633027,0.235039 1.0390851,0.622363 1.4916565,1.02335 0.2941137,0.265542 0.5655145,0.555385 0.8034466,0.872475 0.1501447,0.200097 0.2129599,0.302461 0.3506819,0.511535 0.2167467,0.329745 0.3910491,0.684065 0.5845492,1.027152 0.325113,0.576445 0.051238,0.05478 0.3606014,0.662114 0.1783072,0.361797 0.3209572,0.739462 0.4840071,1.107984 0.061084,0.138058 0.1273642,0.273767 0.1893685,0.411414 0.1383212,0.307064 0.2105124,0.480043 0.3412394,0.786122 0.2033579,0.395443 0.3537295,0.826972 0.6177785,1.189366 0.1255563,0.172319 0.2402406,0.27937 0.3875215,0.430097 0.2027424,0.186246 0.412226,0.370661 0.655015,0.503758 0.05185,0.02842 0.102232,0.06239 0.159202,0.07822 1.274716,0.354239 2.555188,0.687425 3.832782,1.031137 0.07282,-0.0064 0.146129,-0.0088 0.218469,-0.01933 0.0854,-0.01251 0.169461,-0.03293 0.254129,-0.04972 0.301343,-0.05971 0.599643,-0.125371 0.890819,-0.225295 0.09767,-0.0335 0.192853,-0.07386 0.289277,-0.110799 0.395629,-0.186289 0.790637,-0.425316 1.040503,-0.79582 0.0448,-0.06642 0.07867,-0.139604 0.118009,-0.209406 0.02993,-0.07442 0.06875,-0.145844 0.08977,-0.223244 0.03288,-0.121058 0.0739,-0.479058 0.08517,-0.598012 0.03819,-0.403046 0.03157,-0.803105 0.02538,-1.207399 -0.0094,-0.634998 -0.06856,-1.271036 -0.178124,-1.896799 -0.05402,-0.308516 -0.116227,-0.564476 -0.185534,-0.86861 -0.03214,-0.126364 -0.05999,-0.253897 -0.09644,-0.379085 -0.0368,-0.126484 -0.08199,-0.250371 -0.122991,-0.375553 -0.125122,-0.381918 -0.25072,-0.763567 -0.384548,-1.142533 -0.0878,-0.272602 -0.191705,-0.539386 -0.282845,-0.810764 -0.06344,-0.180984 -0.09793,-0.370149 -0.133364,-0.558113 -0.02885,-0.08975 -0.01409,-0.04636 -0.04398,-0.130232 0,0 -3.855122,-0.795733 -3.855122,-0.795733 v 0 c 0.03378,0.078 0.0165,0.0394 0.05179,0.115842 0.09535,0.160175 0.124579,0.385537 0.188346,0.560494 0.04004,0.129003 0.08072,0.26016 0.135459,0.383902 0.07471,0.168885 0.175102,0.325532 0.260189,0.488985 0.136201,0.262543 0.271214,0.526977 0.389263,0.798333 0.145597,0.334684 0.143366,0.358368 0.266374,0.707459 0.04386,0.124478 0.08878,0.248579 0.133154,0.372872 0.04095,0.136443 0.08595,0.271735 0.122852,0.409329 0.197315,0.735986 0.295883,1.496384 0.278866,2.25857 -0.04225,0.504124 -0.01682,0.331681 -0.09691,0.805611 -0.05693,0.336872 -0.113442,0.678397 -0.274425,0.984326 -0.03263,0.05172 -0.06161,0.105922 -0.09788,0.155144 -0.221334,0.300365 -0.5603,0.489946 -0.897069,0.631394 -0.09008,0.02965 -0.179053,0.06289 -0.270236,0.08895 -0.452183,0.12918 -0.937202,0.191708 -1.401065,0.09464 1.150296,0.320055 2.301406,0.637204 3.450889,0.960165 0.05586,0.0157 -0.114155,-0.02185 -0.169795,-0.0383 -0.278901,-0.08244 -0.527795,-0.243538 -0.762256,-0.410526 -0.201425,-0.158245 -0.2341,-0.172272 -0.41208,-0.359282 -0.316978,-0.333058 -0.540478,-0.738091 -0.757147,-1.139986 -0.06336,-0.125384 -0.130208,-0.249068 -0.190077,-0.376155 -0.295579,-0.627324 -0.515543,-1.287374 -0.790062,-1.923654 -0.04961,-0.115155 -0.100534,-0.229748 -0.148829,-0.34546 -0.04411,-0.105669 -0.08075,-0.214493 -0.128347,-0.318639 -0.04134,-0.09045 -0.09159,-0.176561 -0.138108,-0.264458 C 10.725169,20.541901 10.577277,20.274148 10.412262,20.01658 10.082319,19.490034 9.7493327,18.960739 9.2855711,18.538523 8.8433394,18.128761 8.3771747,17.741057 7.8754929,17.405814 6.5762253,16.732436 4.9376858,16.514382 3.6405949,16.164626 3.5372731,16.136766 3.2586741,16.08982 3.1509463,16.081657 c -0.080036,-0.0061 -0.1605195,-0.002 -0.2407782,-0.0031 -0.069466,0.0162 -0.1420734,0.02234 -0.2083988,0.0486 -0.2957171,0.116886 -0.4235166,0.42397 -0.4681646,0.714919 -0.00967,0.07551 -0.048272,0.372992 -0.054338,0.438231 -0.039111,0.420574 -0.037101,0.844426 -0.042863,1.266255 0.010709,0.885365 0.047854,1.769703 0.063026,2.654944 -0.025091,0.876051 -0.055339,1.753803 -0.1885854,2.621529 -0.025942,0.458421 -0.032326,0.917587 -0.040538,1.376501 z" />
  </g>
  <g
     id="layer8"
     style="display:none"
     transform="translate(-1.9333174,-15.136389)">
    <path
       style="display:inline;fill:#1a1a1a;stroke-width:0.264583"
       id="path1"
       d="m 4.9438411,20.787988 c 0.055536,-0.01283 0.1098272,-0.03351 0.1666074,-0.03849 0.4307101,-0.03778 0.830082,-0.009 1.2655626,0.03164 0.3363233,0.0314 0.671494,0.07461 1.0063189,0.119241 0.8116477,0.108189 1.3728607,0.206342 2.1799285,0.338628 0.8593765,0.14117 1.7125885,0.316983 2.5697695,0.47012 0.565995,0.101115 1.134952,0.18444 1.703947,0.266398 0.560093,0.08754 1.125175,0.140961 1.68518,0.228866 0.375082,0.06609 0.195512,0.03657 0.538535,0.08961 0.275958,0.03585 0.551483,0.07724 0.829495,0.09328 0.180369,-0.0076 0.360736,-0.01385 0.541514,-0.01139 0.184611,-0.0019 0.369028,-6.87e-4 0.553569,0.0051 0,0 -3.174812,-2.306285 -3.174812,-2.306285 v 0 c -0.179503,0.0064 -0.358897,0.0075 -0.538493,0.0067 -0.184155,0.0036 -0.3681,7.9e-5 -0.551691,-0.01465 -0.229293,-0.0021 -0.458759,-0.0051 -0.687367,-0.02495 -0.255079,-0.01638 -0.510762,-0.02208 -0.765678,-0.0409 -0.415085,-0.03064 -0.828072,-0.0838 -1.242404,-0.122371 C 9.7516676,19.746042 8.4785186,19.62272 7.2081521,19.473954 6.8631638,19.426137 6.5174335,19.383397 6.1731868,19.330505 5.5782434,19.239093 4.497888,19.048792 3.9068126,18.931158 2.8837871,18.727558 3.0117473,18.733364 2.0993472,18.532132 1.9798216,18.50577 1.8593488,18.483903 1.7393496,18.459788 Z" />
  </g>
</svg>
